G75*
G70*
%OFA0B0*%
%FSLAX24Y24*%
%IPPOS*%
%LPD*%
%AMOC8*
5,1,8,0,0,1.08239X$1,22.5*
%
%ADD10C,0.0079*%
%ADD11R,0.1181X0.0591*%
%ADD12R,0.0394X0.0394*%
%ADD13R,0.0787X0.0787*%
%ADD14C,0.0787*%
%ADD15R,0.0591X0.1181*%
%ADD16C,0.0551*%
%ADD17C,0.0079*%
%ADD18C,0.0236*%
%ADD19C,0.0472*%
%ADD20C,0.0118*%
%ADD21C,0.0197*%
D10*
X006063Y008110D03*
X006220Y008110D03*
X006220Y008268D03*
X006063Y008268D03*
X006063Y008425D03*
X006220Y008425D03*
X006378Y008425D03*
X006535Y008425D03*
X006535Y008268D03*
X006535Y008110D03*
X006378Y008110D03*
D11*
X008957Y008071D03*
X008957Y008858D03*
D12*
X010433Y008268D03*
X010433Y007677D03*
X006594Y009843D03*
X006004Y009843D03*
X005807Y011220D03*
X006594Y011220D03*
X007185Y011220D03*
X007185Y012402D03*
X006594Y012402D03*
X005807Y012402D03*
X005217Y012402D03*
X005217Y011220D03*
X003346Y013484D03*
X003346Y014075D03*
X001181Y014075D03*
X001181Y013484D03*
X008760Y011909D03*
X008760Y011319D03*
X004921Y006004D03*
X004921Y005413D03*
D13*
X004724Y004331D03*
X005906Y004331D03*
X007776Y005610D03*
X008957Y005610D03*
X008957Y006791D03*
X007776Y006791D03*
D14*
X010630Y006299D03*
X010630Y009843D03*
X010630Y012205D03*
X003346Y007087D03*
X001181Y007087D03*
X003346Y004331D03*
X003346Y001181D03*
X010630Y001181D03*
D15*
X006693Y006398D03*
X005906Y006398D03*
D16*
X003346Y009531D03*
X003346Y010531D03*
X003346Y011531D03*
X001181Y011531D03*
X001181Y010531D03*
X001181Y009531D03*
D17*
X002559Y000276D02*
X009350Y000276D01*
X009350Y000377D01*
X009350Y005945D01*
X008118Y005945D01*
X007185Y005945D01*
X007185Y005726D01*
X007070Y005610D01*
X006907Y005610D01*
X006479Y005610D01*
X006316Y005610D01*
X006299Y005627D01*
X006282Y005610D01*
X006119Y005610D01*
X005413Y005610D01*
X005413Y003822D01*
X005413Y003659D01*
X005298Y003543D01*
X003061Y003543D01*
X002898Y003543D01*
X002773Y003668D01*
X002657Y003784D01*
X002657Y005567D01*
X002773Y005682D01*
X002773Y005682D01*
X002782Y005692D01*
X002782Y005692D01*
X002898Y005807D01*
X004528Y005807D01*
X004528Y005889D01*
X004528Y006578D01*
X004643Y006693D01*
X005512Y007562D01*
X005512Y007562D01*
X005627Y007677D01*
X006021Y008071D01*
X006000Y008071D01*
X005963Y008034D01*
X005862Y007992D01*
X005752Y007992D01*
X005651Y008034D01*
X005573Y008112D01*
X005531Y008213D01*
X005531Y008323D01*
X005573Y008424D01*
X005614Y008465D01*
X005529Y008465D01*
X005413Y008580D01*
X004921Y009072D01*
X004921Y009235D01*
X004921Y010416D01*
X005037Y010531D01*
X005413Y010908D01*
X005413Y012008D01*
X005003Y012008D01*
X004840Y012008D01*
X004724Y012123D01*
X004724Y013467D01*
X004840Y013583D01*
X005003Y013583D01*
X005332Y013583D01*
X005495Y013583D01*
X005610Y013467D01*
X005610Y012795D01*
X006046Y012795D01*
X006161Y012680D01*
X006161Y012664D01*
X006161Y012139D01*
X006161Y010509D01*
X006046Y010394D01*
X005610Y009958D01*
X005610Y009353D01*
X005692Y009272D01*
X006024Y008940D01*
X006024Y009190D01*
X006024Y009353D01*
X006102Y009432D01*
X006102Y010076D01*
X006102Y010239D01*
X006240Y010377D01*
X006240Y010396D01*
X006240Y010958D01*
X006240Y011483D01*
X006240Y012139D01*
X006240Y012664D01*
X006332Y012756D01*
X006857Y012756D01*
X006862Y012750D01*
X006907Y012795D01*
X007070Y012795D01*
X009015Y012795D01*
X009130Y012680D01*
X009350Y012460D01*
X009350Y012297D01*
X009350Y011631D01*
X009333Y011614D01*
X009350Y011597D01*
X009350Y010416D01*
X009350Y010253D01*
X008169Y009072D01*
X008054Y008957D01*
X007601Y008957D01*
X007306Y008661D01*
X008088Y008661D01*
X008251Y008661D01*
X008349Y008563D01*
X009466Y008563D01*
X009941Y009038D01*
X010056Y009154D01*
X011533Y009154D01*
X011535Y009154D01*
X011535Y015472D01*
X000276Y015472D01*
X000276Y010183D01*
X000775Y010682D01*
X000814Y010777D01*
X000936Y010899D01*
X001095Y010965D01*
X001267Y010965D01*
X001426Y010899D01*
X001548Y010777D01*
X001614Y010618D01*
X001614Y010445D01*
X001548Y010286D01*
X001426Y010164D01*
X001331Y010125D01*
X000886Y009679D01*
X000886Y007939D01*
X001187Y007638D01*
X001291Y007638D01*
X001493Y007554D01*
X001648Y007399D01*
X001732Y007196D01*
X001732Y006977D01*
X001648Y006774D01*
X001493Y006619D01*
X001291Y006535D01*
X001071Y006535D01*
X000869Y006619D01*
X000714Y006774D01*
X000630Y006977D01*
X000630Y007081D01*
X000276Y007435D01*
X000276Y002559D01*
X001781Y002559D01*
X001944Y002559D01*
X002444Y002059D01*
X002559Y001944D01*
X002559Y000276D01*
X002559Y000309D02*
X009350Y000309D01*
X009350Y000386D02*
X002559Y000386D01*
X002559Y000464D02*
X009350Y000464D01*
X009350Y000541D02*
X002559Y000541D01*
X002559Y000618D02*
X009350Y000618D01*
X009350Y000696D02*
X002559Y000696D01*
X002559Y000773D02*
X009350Y000773D01*
X009350Y000850D02*
X002559Y000850D01*
X002559Y000927D02*
X009350Y000927D01*
X009350Y001005D02*
X002559Y001005D01*
X002559Y001082D02*
X009350Y001082D01*
X009350Y001159D02*
X002559Y001159D01*
X002559Y001237D02*
X009350Y001237D01*
X009350Y001314D02*
X002559Y001314D01*
X002559Y001391D02*
X009350Y001391D01*
X009350Y001468D02*
X002559Y001468D01*
X002559Y001546D02*
X009350Y001546D01*
X009350Y001623D02*
X002559Y001623D01*
X002559Y001700D02*
X009350Y001700D01*
X009350Y001778D02*
X002559Y001778D01*
X002559Y001855D02*
X009350Y001855D01*
X009350Y001932D02*
X002559Y001932D01*
X002493Y002009D02*
X009350Y002009D01*
X009350Y002087D02*
X002416Y002087D01*
X002339Y002164D02*
X009350Y002164D01*
X009350Y002241D02*
X002262Y002241D01*
X002184Y002319D02*
X009350Y002319D01*
X009350Y002396D02*
X002107Y002396D01*
X002030Y002473D02*
X009350Y002473D01*
X009350Y002550D02*
X001952Y002550D01*
X002886Y003555D02*
X000276Y003555D01*
X000276Y003478D02*
X009350Y003478D01*
X009350Y003555D02*
X005310Y003555D01*
X005387Y003632D02*
X009350Y003632D01*
X009350Y003710D02*
X005413Y003710D01*
X005413Y003787D02*
X009350Y003787D01*
X009350Y003864D02*
X005413Y003864D01*
X005413Y003941D02*
X009350Y003941D01*
X009350Y004019D02*
X005413Y004019D01*
X005413Y004096D02*
X009350Y004096D01*
X009350Y004173D02*
X005413Y004173D01*
X005413Y004251D02*
X009350Y004251D01*
X009350Y004328D02*
X005413Y004328D01*
X005413Y004405D02*
X009350Y004405D01*
X009350Y004482D02*
X005413Y004482D01*
X005413Y004560D02*
X009350Y004560D01*
X009350Y004637D02*
X005413Y004637D01*
X005413Y004714D02*
X009350Y004714D01*
X009350Y004792D02*
X005413Y004792D01*
X005413Y004869D02*
X009350Y004869D01*
X009350Y004946D02*
X005413Y004946D01*
X005413Y005023D02*
X009350Y005023D01*
X009350Y005101D02*
X005413Y005101D01*
X005413Y005178D02*
X009350Y005178D01*
X009350Y005255D02*
X005413Y005255D01*
X005413Y005333D02*
X009350Y005333D01*
X009350Y005410D02*
X005413Y005410D01*
X005413Y005487D02*
X009350Y005487D01*
X009350Y005564D02*
X005413Y005564D01*
X005217Y005564D02*
X002934Y005564D01*
X002979Y005610D02*
X002854Y005485D01*
X002854Y003865D01*
X002979Y003740D01*
X005217Y003740D01*
X005217Y005610D01*
X002979Y005610D01*
X002856Y005487D02*
X005217Y005487D01*
X005217Y005410D02*
X002854Y005410D01*
X002854Y005333D02*
X005217Y005333D01*
X005217Y005255D02*
X002854Y005255D01*
X002854Y005178D02*
X005217Y005178D01*
X005217Y005101D02*
X002854Y005101D01*
X002854Y005023D02*
X005217Y005023D01*
X005217Y004946D02*
X002854Y004946D01*
X002854Y004869D02*
X005217Y004869D01*
X005217Y004792D02*
X002854Y004792D01*
X002854Y004714D02*
X005217Y004714D01*
X005217Y004637D02*
X002854Y004637D01*
X002854Y004560D02*
X005217Y004560D01*
X005217Y004482D02*
X002854Y004482D01*
X002854Y004405D02*
X005217Y004405D01*
X005217Y004328D02*
X002854Y004328D01*
X002854Y004251D02*
X005217Y004251D01*
X005217Y004173D02*
X002854Y004173D01*
X002854Y004096D02*
X005217Y004096D01*
X005217Y004019D02*
X002854Y004019D01*
X002854Y003941D02*
X005217Y003941D01*
X005217Y003864D02*
X002855Y003864D01*
X002933Y003787D02*
X005217Y003787D01*
X004724Y005807D02*
X004724Y006496D01*
X005945Y007717D01*
X005948Y007717D01*
X006007Y007776D01*
X006181Y007776D01*
X006181Y007680D01*
X006181Y007517D01*
X006201Y007497D01*
X006201Y005807D01*
X004724Y005807D01*
X004724Y005874D02*
X006201Y005874D01*
X006201Y005951D02*
X004724Y005951D01*
X004724Y006028D02*
X006201Y006028D01*
X006201Y006105D02*
X004724Y006105D01*
X004724Y006183D02*
X006201Y006183D01*
X006201Y006260D02*
X004724Y006260D01*
X004724Y006337D02*
X006201Y006337D01*
X006201Y006415D02*
X004724Y006415D01*
X004724Y006492D02*
X006201Y006492D01*
X006201Y006569D02*
X004797Y006569D01*
X004875Y006646D02*
X006201Y006646D01*
X006201Y006724D02*
X004952Y006724D01*
X005029Y006801D02*
X006201Y006801D01*
X006201Y006878D02*
X005107Y006878D01*
X005184Y006956D02*
X006201Y006956D01*
X006201Y007033D02*
X005261Y007033D01*
X005338Y007110D02*
X006201Y007110D01*
X006201Y007187D02*
X005416Y007187D01*
X005493Y007265D02*
X006201Y007265D01*
X006201Y007283D02*
X006201Y007579D01*
X006220Y007598D01*
X006220Y007697D01*
X005906Y007382D01*
X005906Y006398D01*
X005315Y006398D01*
X004921Y006004D01*
X004528Y006028D02*
X000276Y006028D01*
X000276Y005951D02*
X004528Y005951D01*
X004528Y005874D02*
X000276Y005874D01*
X000276Y005796D02*
X002887Y005796D01*
X002810Y005719D02*
X000276Y005719D01*
X000276Y005642D02*
X002732Y005642D01*
X002657Y005564D02*
X000276Y005564D01*
X000276Y005487D02*
X002657Y005487D01*
X002657Y005410D02*
X000276Y005410D01*
X000276Y005333D02*
X002657Y005333D01*
X002657Y005255D02*
X000276Y005255D01*
X000276Y005178D02*
X002657Y005178D01*
X002657Y005101D02*
X000276Y005101D01*
X000276Y005023D02*
X002657Y005023D01*
X002657Y004946D02*
X000276Y004946D01*
X000276Y004869D02*
X002657Y004869D01*
X002657Y004792D02*
X000276Y004792D01*
X000276Y004714D02*
X002657Y004714D01*
X002657Y004637D02*
X000276Y004637D01*
X000276Y004560D02*
X002657Y004560D01*
X002657Y004482D02*
X000276Y004482D01*
X000276Y004405D02*
X002657Y004405D01*
X002657Y004328D02*
X000276Y004328D01*
X000276Y004251D02*
X002657Y004251D01*
X002657Y004173D02*
X000276Y004173D01*
X000276Y004096D02*
X002657Y004096D01*
X002657Y004019D02*
X000276Y004019D01*
X000276Y003941D02*
X002657Y003941D01*
X002657Y003864D02*
X000276Y003864D01*
X000276Y003787D02*
X002657Y003787D01*
X002731Y003710D02*
X000276Y003710D01*
X000276Y003632D02*
X002809Y003632D01*
X000276Y003400D02*
X009350Y003400D01*
X009350Y003323D02*
X000276Y003323D01*
X000276Y003246D02*
X009350Y003246D01*
X009350Y003169D02*
X000276Y003169D01*
X000276Y003091D02*
X009350Y003091D01*
X009350Y003014D02*
X000276Y003014D01*
X000276Y002937D02*
X009350Y002937D01*
X009350Y002859D02*
X000276Y002859D01*
X000276Y002782D02*
X009350Y002782D01*
X009350Y002705D02*
X000276Y002705D01*
X000276Y002628D02*
X009350Y002628D01*
X009547Y002628D02*
X011535Y002628D01*
X011535Y002705D02*
X009547Y002705D01*
X009547Y002782D02*
X011535Y002782D01*
X011535Y002859D02*
X009547Y002859D01*
X009547Y002937D02*
X011535Y002937D01*
X011535Y003014D02*
X009547Y003014D01*
X009547Y003091D02*
X011535Y003091D01*
X011535Y003169D02*
X009547Y003169D01*
X009547Y003246D02*
X011535Y003246D01*
X011535Y003323D02*
X009547Y003323D01*
X009547Y003400D02*
X011535Y003400D01*
X011535Y003478D02*
X009547Y003478D01*
X009547Y003555D02*
X011535Y003555D01*
X011535Y003632D02*
X009547Y003632D01*
X009547Y003710D02*
X011535Y003710D01*
X011535Y003787D02*
X009547Y003787D01*
X009547Y003864D02*
X011535Y003864D01*
X011535Y003941D02*
X009547Y003941D01*
X009547Y004019D02*
X011535Y004019D01*
X011535Y004096D02*
X009547Y004096D01*
X009547Y004173D02*
X011535Y004173D01*
X011535Y004251D02*
X009547Y004251D01*
X009547Y004328D02*
X011535Y004328D01*
X011535Y004405D02*
X009547Y004405D01*
X009547Y004482D02*
X011535Y004482D01*
X011535Y004560D02*
X009547Y004560D01*
X009547Y004637D02*
X011535Y004637D01*
X011535Y004714D02*
X009547Y004714D01*
X009547Y004792D02*
X011535Y004792D01*
X011535Y004869D02*
X009547Y004869D01*
X009547Y004946D02*
X011535Y004946D01*
X011535Y005023D02*
X009547Y005023D01*
X009547Y005101D02*
X011535Y005101D01*
X011535Y005178D02*
X009547Y005178D01*
X009547Y005255D02*
X011535Y005255D01*
X011535Y005333D02*
X009547Y005333D01*
X009547Y005410D02*
X011535Y005410D01*
X011535Y005487D02*
X009547Y005487D01*
X009547Y005564D02*
X011535Y005564D01*
X011535Y005642D02*
X009547Y005642D01*
X009547Y005719D02*
X010127Y005719D01*
X010138Y005709D02*
X011535Y005709D01*
X011535Y000295D01*
X009547Y000295D01*
X009547Y006043D01*
X009449Y006142D01*
X009435Y006142D01*
X009416Y006161D01*
X008498Y006161D01*
X008478Y006142D01*
X008254Y006142D01*
X008234Y006161D01*
X007317Y006161D01*
X007297Y006142D01*
X007185Y006142D01*
X007185Y007480D01*
X006693Y007972D01*
X007173Y007972D01*
X007665Y007480D01*
X008366Y007480D01*
X008366Y006299D01*
X008439Y006299D01*
X008498Y006240D01*
X009416Y006240D01*
X009475Y006299D01*
X009547Y006299D01*
X010138Y005709D01*
X010050Y005796D02*
X009547Y005796D01*
X009547Y005874D02*
X009973Y005874D01*
X009896Y005951D02*
X009547Y005951D01*
X009547Y006028D02*
X009818Y006028D01*
X009741Y006105D02*
X009485Y006105D01*
X009435Y006260D02*
X009586Y006260D01*
X009664Y006183D02*
X007185Y006183D01*
X007185Y006260D02*
X008478Y006260D01*
X008366Y006337D02*
X007185Y006337D01*
X007185Y006415D02*
X008366Y006415D01*
X008366Y006492D02*
X007185Y006492D01*
X007185Y006569D02*
X008366Y006569D01*
X008366Y006646D02*
X007185Y006646D01*
X007185Y006724D02*
X008366Y006724D01*
X008366Y006801D02*
X007185Y006801D01*
X007185Y006878D02*
X008366Y006878D01*
X008366Y006956D02*
X007185Y006956D01*
X007185Y007033D02*
X008366Y007033D01*
X008366Y007110D02*
X007185Y007110D01*
X007185Y007187D02*
X008366Y007187D01*
X008366Y007265D02*
X007185Y007265D01*
X007185Y007342D02*
X008366Y007342D01*
X008366Y007419D02*
X007185Y007419D01*
X007185Y007461D02*
X006535Y008110D01*
X006614Y008110D01*
X006732Y007992D01*
X006705Y007960D02*
X007185Y007960D01*
X007262Y007883D02*
X006782Y007883D01*
X006860Y007806D02*
X007340Y007806D01*
X007417Y007728D02*
X006937Y007728D01*
X007014Y007651D02*
X007494Y007651D01*
X007572Y007574D02*
X007092Y007574D01*
X007169Y007496D02*
X007649Y007496D01*
X007579Y007531D02*
X007079Y008031D01*
X006693Y008031D01*
X006535Y008110D02*
X007047Y008110D01*
X007579Y007579D01*
X007579Y007531D01*
X007579Y007382D01*
X007776Y007677D02*
X007185Y008268D01*
X007168Y008268D01*
X007129Y008307D01*
X006966Y008307D01*
X006929Y008307D01*
X007087Y008465D01*
X008169Y008465D01*
X008268Y008366D01*
X009547Y008366D01*
X009587Y008406D01*
X009612Y008406D01*
X009705Y008498D01*
X009705Y008524D01*
X010138Y008957D01*
X011535Y008957D01*
X011535Y008071D01*
X010039Y008071D01*
X009646Y007677D01*
X007776Y007677D01*
X007724Y007728D02*
X009697Y007728D01*
X009774Y007806D02*
X007647Y007806D01*
X007570Y007883D02*
X009851Y007883D01*
X009929Y007960D02*
X007493Y007960D01*
X007415Y008037D02*
X010006Y008037D01*
X010138Y007874D02*
X011535Y007874D01*
X011535Y005905D01*
X010219Y005905D01*
X009629Y006496D01*
X009466Y006496D01*
X008602Y006496D01*
X008602Y007480D01*
X009744Y007480D01*
X010138Y007874D01*
X010069Y007806D02*
X011535Y007806D01*
X011535Y007728D02*
X009992Y007728D01*
X009915Y007651D02*
X011535Y007651D01*
X011535Y007574D02*
X009838Y007574D01*
X009760Y007496D02*
X011535Y007496D01*
X011535Y007419D02*
X008602Y007419D01*
X008602Y007342D02*
X011535Y007342D01*
X011535Y007265D02*
X008602Y007265D01*
X008602Y007187D02*
X011535Y007187D01*
X011535Y007110D02*
X008602Y007110D01*
X008602Y007033D02*
X011535Y007033D01*
X011535Y006956D02*
X008602Y006956D01*
X008602Y006878D02*
X011535Y006878D01*
X011535Y006801D02*
X008602Y006801D01*
X008602Y006724D02*
X011535Y006724D01*
X011535Y006646D02*
X008602Y006646D01*
X008602Y006569D02*
X011535Y006569D01*
X011535Y006492D02*
X009633Y006492D01*
X009710Y006415D02*
X011535Y006415D01*
X011535Y006337D02*
X009788Y006337D01*
X009865Y006260D02*
X011535Y006260D01*
X011535Y006183D02*
X009942Y006183D01*
X010019Y006105D02*
X011535Y006105D01*
X011535Y006028D02*
X010097Y006028D01*
X010174Y005951D02*
X011535Y005951D01*
X009350Y005874D02*
X007185Y005874D01*
X007185Y005796D02*
X009350Y005796D01*
X009350Y005719D02*
X007178Y005719D01*
X007101Y005642D02*
X009350Y005642D01*
X006988Y005807D02*
X006398Y005807D01*
X006398Y007497D01*
X006417Y007517D01*
X006417Y007680D01*
X006417Y007778D01*
X006417Y007854D01*
X006988Y007283D01*
X006988Y005807D01*
X006988Y005874D02*
X006398Y005874D01*
X006398Y005951D02*
X006988Y005951D01*
X006988Y006028D02*
X006398Y006028D01*
X006398Y006105D02*
X006988Y006105D01*
X006988Y006183D02*
X006398Y006183D01*
X006398Y006260D02*
X006988Y006260D01*
X006988Y006337D02*
X006398Y006337D01*
X006398Y006415D02*
X006988Y006415D01*
X006988Y006492D02*
X006398Y006492D01*
X006398Y006569D02*
X006988Y006569D01*
X006988Y006646D02*
X006398Y006646D01*
X006398Y006724D02*
X006988Y006724D01*
X006988Y006801D02*
X006398Y006801D01*
X006398Y006878D02*
X006988Y006878D01*
X006988Y006956D02*
X006398Y006956D01*
X006398Y007033D02*
X006988Y007033D01*
X006988Y006988D02*
X006988Y007382D01*
X006378Y007992D01*
X006378Y008110D01*
X006378Y007992D02*
X006378Y007697D01*
X006378Y007598D01*
X006398Y007579D01*
X006398Y007382D01*
X006398Y007419D02*
X006852Y007419D01*
X006775Y007496D02*
X006398Y007496D01*
X006417Y007574D02*
X006698Y007574D01*
X006621Y007651D02*
X006417Y007651D01*
X006378Y007697D02*
X006693Y007382D01*
X006693Y006398D01*
X006398Y007110D02*
X006988Y007110D01*
X006988Y007187D02*
X006398Y007187D01*
X006398Y007265D02*
X006988Y007265D01*
X006930Y007342D02*
X006398Y007342D01*
X006201Y007342D02*
X005570Y007342D01*
X005648Y007419D02*
X006201Y007419D01*
X006201Y007496D02*
X005725Y007496D01*
X005709Y007480D02*
X005807Y007480D01*
X006201Y007874D01*
X006220Y007992D02*
X005709Y007480D01*
X005802Y007574D02*
X006181Y007574D01*
X006201Y007579D02*
X006004Y007382D01*
X005879Y007651D02*
X006181Y007651D01*
X006220Y007697D02*
X006220Y008110D01*
X006220Y007992D01*
X006063Y008110D02*
X005866Y007913D01*
X005650Y007913D01*
X005648Y008037D02*
X003051Y008037D01*
X003051Y007960D02*
X005910Y007960D01*
X005945Y008031D02*
X005984Y008031D01*
X006063Y008110D01*
X005987Y008037D02*
X005967Y008037D01*
X005833Y007883D02*
X003107Y007883D01*
X003051Y007939D02*
X003051Y009679D01*
X003497Y010125D01*
X003592Y010164D01*
X003714Y010286D01*
X003779Y010445D01*
X003779Y010618D01*
X003714Y010777D01*
X003592Y010899D01*
X003433Y010965D01*
X003260Y010965D01*
X003101Y010899D01*
X002979Y010777D01*
X002940Y010682D01*
X002324Y010066D01*
X002264Y009921D01*
X002264Y009764D01*
X002264Y007854D01*
X002264Y007697D01*
X002324Y007553D01*
X002795Y007081D01*
X002795Y006977D01*
X002879Y006774D01*
X003034Y006619D01*
X003237Y006535D01*
X003456Y006535D01*
X003659Y006619D01*
X003814Y006774D01*
X003898Y006977D01*
X003898Y007196D01*
X003814Y007399D01*
X003659Y007554D01*
X003456Y007638D01*
X003352Y007638D01*
X003051Y007939D01*
X003051Y008115D02*
X005572Y008115D01*
X005540Y008192D02*
X003051Y008192D01*
X003051Y008269D02*
X005531Y008269D01*
X005541Y008347D02*
X003051Y008347D01*
X003051Y008424D02*
X005574Y008424D01*
X005492Y008501D02*
X003051Y008501D01*
X003051Y008578D02*
X005415Y008578D01*
X005337Y008656D02*
X003051Y008656D01*
X003051Y008733D02*
X005260Y008733D01*
X005183Y008810D02*
X003051Y008810D01*
X003051Y008888D02*
X005106Y008888D01*
X005028Y008965D02*
X003051Y008965D01*
X003051Y009042D02*
X004951Y009042D01*
X004921Y009119D02*
X003051Y009119D01*
X003051Y009197D02*
X004921Y009197D01*
X004921Y009274D02*
X003051Y009274D01*
X003051Y009351D02*
X004921Y009351D01*
X004921Y009429D02*
X003051Y009429D01*
X003051Y009506D02*
X004921Y009506D01*
X004921Y009583D02*
X003051Y009583D01*
X003051Y009660D02*
X004921Y009660D01*
X004921Y009738D02*
X003109Y009738D01*
X003187Y009815D02*
X004921Y009815D01*
X004921Y009892D02*
X003264Y009892D01*
X003341Y009970D02*
X004921Y009970D01*
X004921Y010047D02*
X003419Y010047D01*
X003496Y010124D02*
X004921Y010124D01*
X004921Y010201D02*
X003629Y010201D01*
X003706Y010279D02*
X004921Y010279D01*
X004921Y010356D02*
X003742Y010356D01*
X003774Y010433D02*
X004938Y010433D01*
X005016Y010511D02*
X003779Y010511D01*
X003779Y010588D02*
X005093Y010588D01*
X005170Y010665D02*
X003760Y010665D01*
X003728Y010742D02*
X005247Y010742D01*
X005325Y010820D02*
X003671Y010820D01*
X003593Y010897D02*
X005402Y010897D01*
X005413Y010974D02*
X000276Y010974D01*
X000276Y010897D02*
X000934Y010897D01*
X000857Y010820D02*
X000276Y010820D01*
X000276Y010742D02*
X000800Y010742D01*
X000758Y010665D02*
X000276Y010665D01*
X000276Y010588D02*
X000681Y010588D01*
X000603Y010511D02*
X000276Y010511D01*
X000276Y010433D02*
X000526Y010433D01*
X000449Y010356D02*
X000276Y010356D01*
X000276Y010279D02*
X000372Y010279D01*
X000294Y010201D02*
X000276Y010201D01*
X000886Y009660D02*
X002264Y009660D01*
X002264Y009583D02*
X000886Y009583D01*
X000886Y009506D02*
X002264Y009506D01*
X002264Y009429D02*
X000886Y009429D01*
X000886Y009351D02*
X002264Y009351D01*
X002264Y009274D02*
X000886Y009274D01*
X000886Y009197D02*
X002264Y009197D01*
X002264Y009119D02*
X000886Y009119D01*
X000886Y009042D02*
X002264Y009042D01*
X002264Y008965D02*
X000886Y008965D01*
X000886Y008888D02*
X002264Y008888D01*
X002264Y008810D02*
X000886Y008810D01*
X000886Y008733D02*
X002264Y008733D01*
X002264Y008656D02*
X000886Y008656D01*
X000886Y008578D02*
X002264Y008578D01*
X002264Y008501D02*
X000886Y008501D01*
X000886Y008424D02*
X002264Y008424D01*
X002264Y008347D02*
X000886Y008347D01*
X000886Y008269D02*
X002264Y008269D01*
X002264Y008192D02*
X000886Y008192D01*
X000886Y008115D02*
X002264Y008115D01*
X002264Y008037D02*
X000886Y008037D01*
X000886Y007960D02*
X002264Y007960D01*
X002264Y007883D02*
X000942Y007883D01*
X001019Y007806D02*
X002264Y007806D01*
X002264Y007728D02*
X001096Y007728D01*
X001173Y007651D02*
X002283Y007651D01*
X002315Y007574D02*
X001445Y007574D01*
X001551Y007496D02*
X002380Y007496D01*
X002457Y007419D02*
X001628Y007419D01*
X001672Y007342D02*
X002534Y007342D01*
X002612Y007265D02*
X001704Y007265D01*
X001732Y007187D02*
X002689Y007187D01*
X002766Y007110D02*
X001732Y007110D01*
X001732Y007033D02*
X002795Y007033D01*
X002804Y006956D02*
X001723Y006956D01*
X001691Y006878D02*
X002836Y006878D01*
X002868Y006801D02*
X001659Y006801D01*
X001598Y006724D02*
X002930Y006724D01*
X003007Y006646D02*
X001520Y006646D01*
X001372Y006569D02*
X003155Y006569D01*
X003537Y006569D02*
X004528Y006569D01*
X004528Y006492D02*
X000276Y006492D01*
X000276Y006569D02*
X000990Y006569D01*
X000842Y006646D02*
X000276Y006646D01*
X000276Y006724D02*
X000765Y006724D01*
X000703Y006801D02*
X000276Y006801D01*
X000276Y006878D02*
X000671Y006878D01*
X000639Y006956D02*
X000276Y006956D01*
X000276Y007033D02*
X000630Y007033D01*
X000601Y007110D02*
X000276Y007110D01*
X000276Y007187D02*
X000524Y007187D01*
X000446Y007265D02*
X000276Y007265D01*
X000276Y007342D02*
X000369Y007342D01*
X000292Y007419D02*
X000276Y007419D01*
X000276Y006415D02*
X004528Y006415D01*
X004528Y006337D02*
X000276Y006337D01*
X000276Y006260D02*
X004528Y006260D01*
X004528Y006183D02*
X000276Y006183D01*
X000276Y006105D02*
X004528Y006105D01*
X004596Y006646D02*
X003686Y006646D01*
X003763Y006724D02*
X004674Y006724D01*
X004751Y006801D02*
X003825Y006801D01*
X003857Y006878D02*
X004828Y006878D01*
X004906Y006956D02*
X003889Y006956D01*
X003898Y007033D02*
X004983Y007033D01*
X005060Y007110D02*
X003898Y007110D01*
X003898Y007187D02*
X005137Y007187D01*
X005215Y007265D02*
X003869Y007265D01*
X003837Y007342D02*
X005292Y007342D01*
X005369Y007419D02*
X003793Y007419D01*
X003716Y007496D02*
X005446Y007496D01*
X005524Y007574D02*
X003611Y007574D01*
X003339Y007651D02*
X005601Y007651D01*
X005678Y007728D02*
X003261Y007728D01*
X003184Y007806D02*
X005756Y007806D01*
X005959Y007728D02*
X006181Y007728D01*
X006417Y007728D02*
X006543Y007728D01*
X006466Y007806D02*
X006417Y007806D01*
X006398Y007579D02*
X006594Y007382D01*
X007338Y008115D02*
X011535Y008115D01*
X011535Y008192D02*
X007261Y008192D01*
X007166Y008269D02*
X011535Y008269D01*
X011535Y008347D02*
X006969Y008347D01*
X006969Y008425D02*
X006850Y008307D01*
X006772Y008307D01*
X006929Y008465D01*
X007126Y008465D01*
X007046Y008424D02*
X008210Y008424D01*
X008334Y008578D02*
X009481Y008578D01*
X009558Y008656D02*
X008256Y008656D01*
X008062Y008965D02*
X009868Y008965D01*
X009945Y009042D02*
X008139Y009042D01*
X008217Y009119D02*
X010022Y009119D01*
X010069Y008888D02*
X011535Y008888D01*
X011535Y008810D02*
X009991Y008810D01*
X009914Y008733D02*
X011535Y008733D01*
X011535Y008656D02*
X009837Y008656D01*
X009760Y008578D02*
X011535Y008578D01*
X011535Y008501D02*
X009705Y008501D01*
X009631Y008424D02*
X011535Y008424D01*
X011535Y009197D02*
X008294Y009197D01*
X008371Y009274D02*
X011535Y009274D01*
X011535Y009351D02*
X008449Y009351D01*
X008526Y009429D02*
X011535Y009429D01*
X011535Y009506D02*
X008603Y009506D01*
X008680Y009583D02*
X011535Y009583D01*
X011535Y009660D02*
X008758Y009660D01*
X008835Y009738D02*
X011535Y009738D01*
X011535Y009815D02*
X008912Y009815D01*
X008990Y009892D02*
X011535Y009892D01*
X011535Y009970D02*
X009067Y009970D01*
X009144Y010047D02*
X011535Y010047D01*
X011535Y010124D02*
X009221Y010124D01*
X009299Y010201D02*
X011535Y010201D01*
X011535Y010279D02*
X009350Y010279D01*
X009350Y010356D02*
X011535Y010356D01*
X011535Y010433D02*
X009350Y010433D01*
X009350Y010511D02*
X011535Y010511D01*
X011535Y010588D02*
X009350Y010588D01*
X009350Y010665D02*
X011535Y010665D01*
X011535Y010742D02*
X009350Y010742D01*
X009350Y010820D02*
X011535Y010820D01*
X011535Y010897D02*
X009350Y010897D01*
X009350Y010974D02*
X011535Y010974D01*
X011535Y011052D02*
X009350Y011052D01*
X009350Y011129D02*
X011535Y011129D01*
X011535Y011206D02*
X009350Y011206D01*
X009350Y011283D02*
X011535Y011283D01*
X011535Y011361D02*
X009350Y011361D01*
X009350Y011438D02*
X011535Y011438D01*
X011535Y011515D02*
X009350Y011515D01*
X009350Y011593D02*
X011535Y011593D01*
X011535Y011670D02*
X009350Y011670D01*
X009350Y011747D02*
X011535Y011747D01*
X011535Y011824D02*
X009350Y011824D01*
X009350Y011902D02*
X011535Y011902D01*
X011535Y011979D02*
X009350Y011979D01*
X009350Y012056D02*
X011535Y012056D01*
X011535Y012134D02*
X009350Y012134D01*
X009350Y012211D02*
X011535Y012211D01*
X011535Y012288D02*
X009350Y012288D01*
X009350Y012365D02*
X011535Y012365D01*
X011535Y012443D02*
X009350Y012443D01*
X009290Y012520D02*
X011535Y012520D01*
X011535Y012597D02*
X009213Y012597D01*
X009136Y012674D02*
X011535Y012674D01*
X011535Y012752D02*
X009058Y012752D01*
X008933Y012598D02*
X009154Y012378D01*
X009154Y011713D01*
X006988Y011713D01*
X006988Y012598D01*
X008933Y012598D01*
X008935Y012597D02*
X006988Y012597D01*
X006988Y012520D02*
X009012Y012520D01*
X009089Y012443D02*
X006988Y012443D01*
X006988Y012365D02*
X009154Y012365D01*
X009154Y012288D02*
X006988Y012288D01*
X006988Y012211D02*
X009154Y012211D01*
X009154Y012134D02*
X006988Y012134D01*
X006988Y012056D02*
X009154Y012056D01*
X009154Y011979D02*
X006988Y011979D01*
X006988Y011902D02*
X009154Y011902D01*
X009154Y011824D02*
X006988Y011824D01*
X006988Y011747D02*
X009154Y011747D01*
X009154Y011516D02*
X009154Y010335D01*
X007972Y009154D01*
X007520Y009154D01*
X007028Y008661D01*
X006791Y008661D01*
X006791Y008819D01*
X008071Y010098D01*
X008071Y011516D01*
X009154Y011516D01*
X009154Y011515D02*
X008071Y011515D01*
X008071Y011438D02*
X009154Y011438D01*
X009154Y011361D02*
X008071Y011361D01*
X008071Y011283D02*
X009154Y011283D01*
X009154Y011206D02*
X008071Y011206D01*
X008071Y011129D02*
X009154Y011129D01*
X009154Y011052D02*
X008071Y011052D01*
X008071Y010974D02*
X009154Y010974D01*
X009154Y010897D02*
X008071Y010897D01*
X008071Y010820D02*
X009154Y010820D01*
X009154Y010742D02*
X008071Y010742D01*
X008071Y010665D02*
X009154Y010665D01*
X009154Y010588D02*
X008071Y010588D01*
X008071Y010511D02*
X009154Y010511D01*
X009154Y010433D02*
X008071Y010433D01*
X008071Y010356D02*
X009154Y010356D01*
X009098Y010279D02*
X008071Y010279D01*
X008071Y010201D02*
X009020Y010201D01*
X008943Y010124D02*
X008071Y010124D01*
X008019Y010047D02*
X008866Y010047D01*
X008788Y009970D02*
X007942Y009970D01*
X007865Y009892D02*
X008711Y009892D01*
X008634Y009815D02*
X007787Y009815D01*
X007710Y009738D02*
X008557Y009738D01*
X008479Y009660D02*
X007633Y009660D01*
X007556Y009583D02*
X008402Y009583D01*
X008325Y009506D02*
X007478Y009506D01*
X007401Y009429D02*
X008247Y009429D01*
X008170Y009351D02*
X007324Y009351D01*
X007246Y009274D02*
X008093Y009274D01*
X008016Y009197D02*
X007169Y009197D01*
X007092Y009119D02*
X007486Y009119D01*
X007408Y009042D02*
X007015Y009042D01*
X006937Y008965D02*
X007331Y008965D01*
X007254Y008888D02*
X006860Y008888D01*
X006870Y008898D02*
X006870Y008839D01*
X006575Y008543D01*
X006535Y008563D02*
X006870Y008898D01*
X006791Y008810D02*
X007176Y008810D01*
X007099Y008733D02*
X006791Y008733D01*
X006575Y008898D02*
X006575Y009094D01*
X006480Y009161D02*
X006378Y009059D01*
X006378Y009154D01*
X006543Y009319D01*
X006496Y009351D02*
X007028Y009351D01*
X006951Y009274D02*
X006496Y009274D01*
X006496Y009269D02*
X006496Y010076D01*
X006676Y010256D01*
X006834Y010413D01*
X006949Y010529D01*
X006949Y010551D01*
X006988Y010591D01*
X006988Y011516D01*
X007874Y011516D01*
X007874Y010197D01*
X006417Y008740D01*
X006417Y009190D01*
X006496Y009269D01*
X006424Y009197D02*
X006874Y009197D01*
X006797Y009119D02*
X006417Y009119D01*
X006378Y009059D02*
X006378Y008858D01*
X006437Y008917D01*
X006437Y010039D01*
X007028Y010630D01*
X006988Y010665D02*
X007874Y010665D01*
X007874Y010588D02*
X006985Y010588D01*
X006931Y010511D02*
X007874Y010511D01*
X007874Y010433D02*
X006853Y010433D01*
X006776Y010356D02*
X007874Y010356D01*
X007874Y010279D02*
X006699Y010279D01*
X006622Y010201D02*
X007874Y010201D01*
X007801Y010124D02*
X006544Y010124D01*
X006496Y010047D02*
X007724Y010047D01*
X007647Y009970D02*
X006496Y009970D01*
X006496Y009892D02*
X007569Y009892D01*
X007492Y009815D02*
X006496Y009815D01*
X006496Y009738D02*
X007415Y009738D01*
X007338Y009660D02*
X006496Y009660D01*
X006496Y009583D02*
X007260Y009583D01*
X007183Y009506D02*
X006496Y009506D01*
X006496Y009429D02*
X007106Y009429D01*
X006719Y009042D02*
X006417Y009042D01*
X006417Y008965D02*
X006642Y008965D01*
X006594Y008957D02*
X006594Y009843D01*
X007185Y010433D01*
X007185Y011220D01*
X006988Y011206D02*
X007874Y011206D01*
X007874Y011129D02*
X006988Y011129D01*
X006988Y011052D02*
X007874Y011052D01*
X007874Y010974D02*
X006988Y010974D01*
X006988Y010897D02*
X007874Y010897D01*
X007874Y010820D02*
X006988Y010820D01*
X006988Y010742D02*
X007874Y010742D01*
X007874Y011283D02*
X006988Y011283D01*
X006988Y011361D02*
X007874Y011361D01*
X007874Y011438D02*
X006988Y011438D01*
X006988Y011515D02*
X007874Y011515D01*
X008760Y011319D02*
X008760Y010650D01*
X006535Y008425D01*
X006535Y008563D01*
X006378Y008425D02*
X006378Y008701D01*
X006575Y008898D01*
X006565Y008888D02*
X006417Y008888D01*
X006378Y008858D02*
X006378Y008740D01*
X006594Y008957D01*
X006487Y008810D02*
X006417Y008810D01*
X006378Y008740D02*
X006378Y008701D01*
X006220Y008425D02*
X006220Y009272D01*
X006299Y009350D01*
X006299Y010157D01*
X006594Y010453D01*
X006752Y010610D01*
X006752Y012264D01*
X006437Y012264D01*
X006437Y010315D01*
X006476Y010354D01*
X006476Y012283D01*
X006516Y012283D01*
X006516Y010453D01*
X006535Y010433D01*
X006654Y010551D01*
X006654Y012283D01*
X006673Y012283D01*
X006673Y010591D01*
X006713Y010591D01*
X006594Y010453D02*
X006594Y011220D01*
X006594Y012402D01*
X006240Y012365D02*
X006161Y012365D01*
X006161Y012288D02*
X006240Y012288D01*
X006240Y012211D02*
X006161Y012211D01*
X006161Y012134D02*
X006240Y012134D01*
X006240Y012056D02*
X006161Y012056D01*
X006161Y011979D02*
X006240Y011979D01*
X006240Y011902D02*
X006161Y011902D01*
X006161Y011824D02*
X006240Y011824D01*
X006240Y011747D02*
X006161Y011747D01*
X006161Y011670D02*
X006240Y011670D01*
X006240Y011593D02*
X006161Y011593D01*
X006161Y011515D02*
X006240Y011515D01*
X006240Y011438D02*
X006161Y011438D01*
X006161Y011361D02*
X006240Y011361D01*
X006240Y011283D02*
X006161Y011283D01*
X006161Y011206D02*
X006240Y011206D01*
X006240Y011129D02*
X006161Y011129D01*
X006161Y011052D02*
X006240Y011052D01*
X006240Y010974D02*
X006161Y010974D01*
X006161Y010897D02*
X006240Y010897D01*
X006240Y010820D02*
X006161Y010820D01*
X006161Y010742D02*
X006240Y010742D01*
X006240Y010665D02*
X006161Y010665D01*
X006161Y010588D02*
X006240Y010588D01*
X006240Y010511D02*
X006161Y010511D01*
X006086Y010433D02*
X006240Y010433D01*
X006220Y010394D02*
X006220Y013150D01*
X006339Y013268D01*
X006328Y012752D02*
X006090Y012752D01*
X006161Y012674D02*
X006251Y012674D01*
X006240Y012597D02*
X006161Y012597D01*
X006161Y012520D02*
X006240Y012520D01*
X006240Y012443D02*
X006161Y012443D01*
X005965Y012443D02*
X005610Y012443D01*
X005610Y012520D02*
X005965Y012520D01*
X005965Y012597D02*
X005610Y012597D01*
X005610Y012598D02*
X005965Y012598D01*
X005965Y010591D01*
X005413Y010039D01*
X005413Y009272D01*
X005464Y009221D01*
X005475Y009194D01*
X005553Y009117D01*
X005579Y009106D01*
X005906Y008780D01*
X005906Y008563D01*
X005807Y008661D01*
X005610Y008661D01*
X005118Y009154D01*
X005118Y010335D01*
X005610Y010827D01*
X005610Y012598D01*
X005413Y012597D02*
X004921Y012597D01*
X004921Y012520D02*
X005413Y012520D01*
X005413Y012443D02*
X004921Y012443D01*
X004921Y012365D02*
X005413Y012365D01*
X005413Y012288D02*
X004921Y012288D01*
X004921Y012211D02*
X005413Y012211D01*
X005413Y012205D02*
X004921Y012205D01*
X004921Y013386D01*
X005413Y013386D01*
X005413Y012205D01*
X005610Y012211D02*
X005965Y012211D01*
X005965Y012288D02*
X005610Y012288D01*
X005610Y012365D02*
X005965Y012365D01*
X005807Y012402D02*
X005807Y011220D01*
X005807Y010433D01*
X005413Y010039D01*
X005413Y009272D01*
X005512Y009173D01*
X005610Y009075D01*
X006004Y008681D01*
X006004Y008504D01*
X005945Y008563D01*
X005945Y008740D01*
X005906Y008733D02*
X005539Y008733D01*
X005461Y008810D02*
X005875Y008810D01*
X005797Y008888D02*
X005384Y008888D01*
X005307Y008965D02*
X005720Y008965D01*
X005643Y009042D02*
X005229Y009042D01*
X005152Y009119D02*
X005550Y009119D01*
X005610Y009075D02*
X005610Y008878D01*
X006063Y008425D01*
X006063Y008622D01*
X006004Y008681D01*
X005906Y008656D02*
X005813Y008656D01*
X005890Y008578D02*
X005906Y008578D01*
X005807Y008268D02*
X006063Y008268D01*
X006220Y008268D02*
X006378Y008268D01*
X006535Y008268D02*
X006654Y008268D01*
X006850Y008465D01*
X006929Y008465D01*
X006654Y008268D02*
X007677Y008268D01*
X007378Y008733D02*
X009636Y008733D01*
X009713Y008810D02*
X007455Y008810D01*
X007532Y008888D02*
X009790Y008888D01*
X006161Y009449D02*
X006024Y009311D01*
X006024Y010197D01*
X006220Y010394D01*
X006219Y010356D02*
X006008Y010356D01*
X005931Y010279D02*
X006142Y010279D01*
X006161Y010276D02*
X006161Y009803D01*
X006161Y009449D01*
X006099Y009429D02*
X005610Y009429D01*
X005610Y009506D02*
X006102Y009506D01*
X006102Y009583D02*
X005610Y009583D01*
X005610Y009660D02*
X006102Y009660D01*
X006102Y009738D02*
X005610Y009738D01*
X005610Y009815D02*
X006102Y009815D01*
X006161Y009803D02*
X005827Y009803D01*
X005827Y010000D01*
X005777Y010124D02*
X006102Y010124D01*
X006102Y010047D02*
X005699Y010047D01*
X005622Y009970D02*
X006102Y009970D01*
X006102Y009892D02*
X005610Y009892D01*
X005413Y009892D02*
X005118Y009892D01*
X005118Y009815D02*
X005413Y009815D01*
X005413Y009738D02*
X005118Y009738D01*
X005118Y009660D02*
X005413Y009660D01*
X005413Y009583D02*
X005118Y009583D01*
X005118Y009506D02*
X005413Y009506D01*
X005413Y009429D02*
X005118Y009429D01*
X005118Y009351D02*
X005413Y009351D01*
X005413Y009274D02*
X005118Y009274D01*
X005118Y009197D02*
X005474Y009197D01*
X005612Y009351D02*
X006024Y009351D01*
X006024Y009274D02*
X005689Y009274D01*
X005767Y009197D02*
X006024Y009197D01*
X006024Y009119D02*
X005844Y009119D01*
X005921Y009042D02*
X006024Y009042D01*
X006024Y008965D02*
X005999Y008965D01*
X006004Y009843D02*
X006004Y010138D01*
X006102Y010201D02*
X005854Y010201D01*
X005730Y010356D02*
X005139Y010356D01*
X005118Y010279D02*
X005653Y010279D01*
X005575Y010201D02*
X005118Y010201D01*
X005118Y010124D02*
X005498Y010124D01*
X005421Y010047D02*
X005118Y010047D01*
X005118Y009970D02*
X005413Y009970D01*
X005217Y010433D02*
X005807Y010433D01*
X005885Y010511D02*
X005294Y010511D01*
X005371Y010588D02*
X005962Y010588D01*
X005965Y010665D02*
X005449Y010665D01*
X005526Y010742D02*
X005965Y010742D01*
X005965Y010820D02*
X005603Y010820D01*
X005610Y010897D02*
X005965Y010897D01*
X005965Y010974D02*
X005610Y010974D01*
X005610Y011052D02*
X005965Y011052D01*
X005965Y011129D02*
X005610Y011129D01*
X005610Y011206D02*
X005965Y011206D01*
X005965Y011283D02*
X005610Y011283D01*
X005610Y011361D02*
X005965Y011361D01*
X005965Y011438D02*
X005610Y011438D01*
X005610Y011515D02*
X005965Y011515D01*
X005965Y011593D02*
X005610Y011593D01*
X005610Y011670D02*
X005965Y011670D01*
X005965Y011747D02*
X005610Y011747D01*
X005610Y011824D02*
X005965Y011824D01*
X005965Y011902D02*
X005610Y011902D01*
X005610Y011979D02*
X005965Y011979D01*
X005965Y012056D02*
X005610Y012056D01*
X005610Y012134D02*
X005965Y012134D01*
X005413Y011979D02*
X003937Y011979D01*
X003937Y012056D02*
X004791Y012056D01*
X004724Y012134D02*
X003937Y012134D01*
X003937Y012211D02*
X004724Y012211D01*
X004724Y012288D02*
X003937Y012288D01*
X003937Y012365D02*
X004724Y012365D01*
X004724Y012443D02*
X003937Y012443D01*
X003937Y012520D02*
X004724Y012520D01*
X004724Y012597D02*
X003937Y012597D01*
X003937Y012674D02*
X004724Y012674D01*
X004724Y012752D02*
X003937Y012752D01*
X003937Y012829D02*
X004724Y012829D01*
X004724Y012906D02*
X003937Y012906D01*
X003937Y012984D02*
X004724Y012984D01*
X004724Y013061D02*
X003937Y013061D01*
X003937Y013138D02*
X004724Y013138D01*
X004724Y013215D02*
X003937Y013215D01*
X003937Y013293D02*
X004724Y013293D01*
X004724Y013370D02*
X003937Y013370D01*
X003937Y013447D02*
X004724Y013447D01*
X004782Y013525D02*
X003937Y013525D01*
X003937Y013602D02*
X011535Y013602D01*
X011535Y013679D02*
X003937Y013679D01*
X003937Y013756D02*
X011535Y013756D01*
X011535Y013834D02*
X003937Y013834D01*
X003937Y013796D02*
X003937Y014387D01*
X003937Y014550D01*
X003822Y014665D01*
X000706Y014665D01*
X000591Y014550D01*
X000591Y014387D01*
X000591Y013959D01*
X000591Y013796D01*
X000607Y013780D01*
X000591Y013763D01*
X000591Y011264D01*
X000706Y011149D01*
X000831Y011024D01*
X000994Y011024D01*
X001531Y011024D01*
X001647Y011139D01*
X001772Y011264D01*
X001772Y011427D01*
X001772Y013681D01*
X002756Y013681D01*
X002756Y011264D01*
X002871Y011149D01*
X002996Y011024D01*
X003159Y011024D01*
X003697Y011024D01*
X003812Y011139D01*
X003937Y011264D01*
X003937Y011427D01*
X003937Y013763D01*
X003920Y013780D01*
X003937Y013796D01*
X003937Y013911D02*
X011535Y013911D01*
X011535Y013988D02*
X003937Y013988D01*
X003937Y014066D02*
X011535Y014066D01*
X011535Y014143D02*
X003937Y014143D01*
X003937Y014220D02*
X011535Y014220D01*
X011535Y014297D02*
X003937Y014297D01*
X003937Y014375D02*
X011535Y014375D01*
X011535Y014452D02*
X003937Y014452D01*
X003937Y014529D02*
X011535Y014529D01*
X011535Y014607D02*
X003880Y014607D01*
X003740Y014469D02*
X003740Y013878D01*
X000787Y013878D01*
X000787Y014469D01*
X003740Y014469D01*
X003740Y014452D02*
X000787Y014452D01*
X000787Y014375D02*
X003740Y014375D01*
X003740Y014297D02*
X000787Y014297D01*
X000787Y014220D02*
X003740Y014220D01*
X003740Y014143D02*
X000787Y014143D01*
X000787Y014066D02*
X003740Y014066D01*
X003740Y013988D02*
X000787Y013988D01*
X000787Y013911D02*
X003740Y013911D01*
X003740Y013681D02*
X002953Y013681D01*
X002953Y011345D01*
X003078Y011220D01*
X003615Y011220D01*
X003740Y011345D01*
X003740Y013681D01*
X003740Y013679D02*
X002953Y013679D01*
X002953Y013602D02*
X003740Y013602D01*
X003740Y013525D02*
X002953Y013525D01*
X002953Y013447D02*
X003740Y013447D01*
X003740Y013370D02*
X002953Y013370D01*
X002953Y013293D02*
X003740Y013293D01*
X003740Y013215D02*
X002953Y013215D01*
X002953Y013138D02*
X003740Y013138D01*
X003740Y013061D02*
X002953Y013061D01*
X002953Y012984D02*
X003740Y012984D01*
X003740Y012906D02*
X002953Y012906D01*
X002953Y012829D02*
X003740Y012829D01*
X003740Y012752D02*
X002953Y012752D01*
X002953Y012674D02*
X003740Y012674D01*
X003740Y012597D02*
X002953Y012597D01*
X002953Y012520D02*
X003740Y012520D01*
X003740Y012443D02*
X002953Y012443D01*
X002953Y012365D02*
X003740Y012365D01*
X003740Y012288D02*
X002953Y012288D01*
X002953Y012211D02*
X003740Y012211D01*
X003740Y012134D02*
X002953Y012134D01*
X002953Y012056D02*
X003740Y012056D01*
X003740Y011979D02*
X002953Y011979D01*
X002953Y011902D02*
X003740Y011902D01*
X003740Y011824D02*
X002953Y011824D01*
X002953Y011747D02*
X003740Y011747D01*
X003740Y011670D02*
X002953Y011670D01*
X002953Y011593D02*
X003740Y011593D01*
X003740Y011515D02*
X002953Y011515D01*
X002953Y011438D02*
X003740Y011438D01*
X003740Y011361D02*
X002953Y011361D01*
X003015Y011283D02*
X003678Y011283D01*
X003802Y011129D02*
X005413Y011129D01*
X005413Y011206D02*
X003879Y011206D01*
X003937Y011283D02*
X005413Y011283D01*
X005413Y011361D02*
X003937Y011361D01*
X003937Y011438D02*
X005413Y011438D01*
X005413Y011515D02*
X003937Y011515D01*
X003937Y011593D02*
X005413Y011593D01*
X005413Y011670D02*
X003937Y011670D01*
X003937Y011747D02*
X005413Y011747D01*
X005413Y011824D02*
X003937Y011824D01*
X003937Y011902D02*
X005413Y011902D01*
X005413Y012674D02*
X004921Y012674D01*
X004921Y012752D02*
X005413Y012752D01*
X005413Y012829D02*
X004921Y012829D01*
X004921Y012906D02*
X005413Y012906D01*
X005413Y012984D02*
X004921Y012984D01*
X004921Y013061D02*
X005413Y013061D01*
X005413Y013138D02*
X004921Y013138D01*
X004921Y013215D02*
X005413Y013215D01*
X005413Y013293D02*
X004921Y013293D01*
X004921Y013370D02*
X005413Y013370D01*
X005610Y013370D02*
X011535Y013370D01*
X011535Y013293D02*
X005610Y013293D01*
X005610Y013215D02*
X011535Y013215D01*
X011535Y013138D02*
X005610Y013138D01*
X005610Y013061D02*
X011535Y013061D01*
X011535Y012984D02*
X005610Y012984D01*
X005610Y012906D02*
X011535Y012906D01*
X011535Y012829D02*
X005610Y012829D01*
X005610Y013447D02*
X011535Y013447D01*
X011535Y013525D02*
X005553Y013525D01*
X006861Y012752D02*
X006863Y012752D01*
X005413Y011052D02*
X003725Y011052D01*
X003346Y011531D02*
X003346Y013484D01*
X003346Y014075D02*
X001181Y014075D01*
X000787Y013681D02*
X001575Y013681D01*
X001575Y011345D01*
X001450Y011220D01*
X000912Y011220D01*
X000787Y011345D01*
X000787Y013681D01*
X000787Y013679D02*
X001575Y013679D01*
X001575Y013602D02*
X000787Y013602D01*
X000787Y013525D02*
X001575Y013525D01*
X001575Y013447D02*
X000787Y013447D01*
X000787Y013370D02*
X001575Y013370D01*
X001575Y013293D02*
X000787Y013293D01*
X000787Y013215D02*
X001575Y013215D01*
X001575Y013138D02*
X000787Y013138D01*
X000787Y013061D02*
X001575Y013061D01*
X001575Y012984D02*
X000787Y012984D01*
X000787Y012906D02*
X001575Y012906D01*
X001575Y012829D02*
X000787Y012829D01*
X000787Y012752D02*
X001575Y012752D01*
X001575Y012674D02*
X000787Y012674D01*
X000787Y012597D02*
X001575Y012597D01*
X001575Y012520D02*
X000787Y012520D01*
X000787Y012443D02*
X001575Y012443D01*
X001575Y012365D02*
X000787Y012365D01*
X000787Y012288D02*
X001575Y012288D01*
X001575Y012211D02*
X000787Y012211D01*
X000787Y012134D02*
X001575Y012134D01*
X001575Y012056D02*
X000787Y012056D01*
X000787Y011979D02*
X001575Y011979D01*
X001575Y011902D02*
X000787Y011902D01*
X000787Y011824D02*
X001575Y011824D01*
X001575Y011747D02*
X000787Y011747D01*
X000787Y011670D02*
X001575Y011670D01*
X001575Y011593D02*
X000787Y011593D01*
X000787Y011515D02*
X001575Y011515D01*
X001575Y011438D02*
X000787Y011438D01*
X000787Y011361D02*
X001575Y011361D01*
X001513Y011283D02*
X000849Y011283D01*
X000726Y011129D02*
X000276Y011129D01*
X000276Y011206D02*
X000648Y011206D01*
X000591Y011283D02*
X000276Y011283D01*
X000276Y011361D02*
X000591Y011361D01*
X000591Y011438D02*
X000276Y011438D01*
X000276Y011515D02*
X000591Y011515D01*
X000591Y011593D02*
X000276Y011593D01*
X000276Y011670D02*
X000591Y011670D01*
X000591Y011747D02*
X000276Y011747D01*
X000276Y011824D02*
X000591Y011824D01*
X000591Y011902D02*
X000276Y011902D01*
X000276Y011979D02*
X000591Y011979D01*
X000591Y012056D02*
X000276Y012056D01*
X000276Y012134D02*
X000591Y012134D01*
X000591Y012211D02*
X000276Y012211D01*
X000276Y012288D02*
X000591Y012288D01*
X000591Y012365D02*
X000276Y012365D01*
X000276Y012443D02*
X000591Y012443D01*
X000591Y012520D02*
X000276Y012520D01*
X000276Y012597D02*
X000591Y012597D01*
X000591Y012674D02*
X000276Y012674D01*
X000276Y012752D02*
X000591Y012752D01*
X000591Y012829D02*
X000276Y012829D01*
X000276Y012906D02*
X000591Y012906D01*
X000591Y012984D02*
X000276Y012984D01*
X000276Y013061D02*
X000591Y013061D01*
X000591Y013138D02*
X000276Y013138D01*
X000276Y013215D02*
X000591Y013215D01*
X000591Y013293D02*
X000276Y013293D01*
X000276Y013370D02*
X000591Y013370D01*
X000591Y013447D02*
X000276Y013447D01*
X000276Y013525D02*
X000591Y013525D01*
X000591Y013602D02*
X000276Y013602D01*
X000276Y013679D02*
X000591Y013679D01*
X000591Y013756D02*
X000276Y013756D01*
X000276Y013834D02*
X000591Y013834D01*
X000591Y013911D02*
X000276Y013911D01*
X000276Y013988D02*
X000591Y013988D01*
X000591Y014066D02*
X000276Y014066D01*
X000276Y014143D02*
X000591Y014143D01*
X000591Y014220D02*
X000276Y014220D01*
X000276Y014297D02*
X000591Y014297D01*
X000591Y014375D02*
X000276Y014375D01*
X000276Y014452D02*
X000591Y014452D01*
X000591Y014529D02*
X000276Y014529D01*
X000276Y014607D02*
X000647Y014607D01*
X000276Y014684D02*
X011535Y014684D01*
X011535Y014761D02*
X000276Y014761D01*
X000276Y014838D02*
X011535Y014838D01*
X011535Y014916D02*
X000276Y014916D01*
X000276Y014993D02*
X011535Y014993D01*
X011535Y015070D02*
X000276Y015070D01*
X000276Y015148D02*
X011535Y015148D01*
X011535Y015225D02*
X000276Y015225D01*
X000276Y015302D02*
X011535Y015302D01*
X011535Y015379D02*
X000276Y015379D01*
X000276Y015457D02*
X011535Y015457D01*
X003099Y010897D02*
X001428Y010897D01*
X001505Y010820D02*
X003022Y010820D01*
X002965Y010742D02*
X001562Y010742D01*
X001594Y010665D02*
X002923Y010665D01*
X002846Y010588D02*
X001614Y010588D01*
X001614Y010511D02*
X002769Y010511D01*
X002691Y010433D02*
X001609Y010433D01*
X001577Y010356D02*
X002614Y010356D01*
X002537Y010279D02*
X001541Y010279D01*
X001463Y010201D02*
X002460Y010201D01*
X002382Y010124D02*
X001330Y010124D01*
X001253Y010047D02*
X002316Y010047D01*
X002284Y009970D02*
X001176Y009970D01*
X001099Y009892D02*
X002264Y009892D01*
X002264Y009815D02*
X001021Y009815D01*
X000944Y009738D02*
X002264Y009738D01*
X002968Y011052D02*
X001559Y011052D01*
X001637Y011129D02*
X002891Y011129D01*
X002814Y011206D02*
X001714Y011206D01*
X001772Y011283D02*
X002756Y011283D01*
X002756Y011361D02*
X001772Y011361D01*
X001772Y011438D02*
X002756Y011438D01*
X002756Y011515D02*
X001772Y011515D01*
X001772Y011593D02*
X002756Y011593D01*
X002756Y011670D02*
X001772Y011670D01*
X001772Y011747D02*
X002756Y011747D01*
X002756Y011824D02*
X001772Y011824D01*
X001772Y011902D02*
X002756Y011902D01*
X002756Y011979D02*
X001772Y011979D01*
X001772Y012056D02*
X002756Y012056D01*
X002756Y012134D02*
X001772Y012134D01*
X001772Y012211D02*
X002756Y012211D01*
X002756Y012288D02*
X001772Y012288D01*
X001772Y012365D02*
X002756Y012365D01*
X002756Y012443D02*
X001772Y012443D01*
X001772Y012520D02*
X002756Y012520D01*
X002756Y012597D02*
X001772Y012597D01*
X001772Y012674D02*
X002756Y012674D01*
X002756Y012752D02*
X001772Y012752D01*
X001772Y012829D02*
X002756Y012829D01*
X002756Y012906D02*
X001772Y012906D01*
X001772Y012984D02*
X002756Y012984D01*
X002756Y013061D02*
X001772Y013061D01*
X001772Y013138D02*
X002756Y013138D01*
X002756Y013215D02*
X001772Y013215D01*
X001772Y013293D02*
X002756Y013293D01*
X002756Y013370D02*
X001772Y013370D01*
X001772Y013447D02*
X002756Y013447D01*
X002756Y013525D02*
X001772Y013525D01*
X001772Y013602D02*
X002756Y013602D01*
X002756Y013679D02*
X001772Y013679D01*
X001181Y013484D02*
X001181Y011531D01*
X000803Y011052D02*
X000276Y011052D01*
X009547Y002550D02*
X011535Y002550D01*
X011535Y002473D02*
X009547Y002473D01*
X009547Y002396D02*
X011535Y002396D01*
X011535Y002319D02*
X009547Y002319D01*
X009547Y002241D02*
X011535Y002241D01*
X011535Y002164D02*
X009547Y002164D01*
X009547Y002087D02*
X011535Y002087D01*
X011535Y002009D02*
X009547Y002009D01*
X009547Y001932D02*
X011535Y001932D01*
X011535Y001855D02*
X009547Y001855D01*
X009547Y001778D02*
X011535Y001778D01*
X011535Y001700D02*
X009547Y001700D01*
X009547Y001623D02*
X011535Y001623D01*
X011535Y001546D02*
X009547Y001546D01*
X009547Y001468D02*
X011535Y001468D01*
X011535Y001391D02*
X009547Y001391D01*
X009547Y001314D02*
X011535Y001314D01*
X011535Y001237D02*
X009547Y001237D01*
X009547Y001159D02*
X011535Y001159D01*
X011535Y001082D02*
X009547Y001082D01*
X009547Y001005D02*
X011535Y001005D01*
X011535Y000927D02*
X009547Y000927D01*
X009547Y000850D02*
X011535Y000850D01*
X011535Y000773D02*
X009547Y000773D01*
X009547Y000696D02*
X011535Y000696D01*
X011535Y000618D02*
X009547Y000618D01*
X009547Y000541D02*
X011535Y000541D01*
X011535Y000464D02*
X009547Y000464D01*
X009547Y000386D02*
X011535Y000386D01*
X011535Y000309D02*
X009547Y000309D01*
D18*
X010728Y002756D03*
X010728Y003051D03*
X010728Y003346D03*
X011024Y003346D03*
X011024Y003051D03*
X011024Y002756D03*
X009173Y004134D03*
X008878Y004134D03*
X008583Y004134D03*
X008583Y004429D03*
X008878Y004429D03*
X009173Y004429D03*
X008071Y004429D03*
X007776Y004429D03*
X007480Y004429D03*
X007480Y004134D03*
X007776Y004134D03*
X008071Y004134D03*
X006890Y004035D03*
X006594Y004035D03*
X006594Y004331D03*
X006594Y004626D03*
X006890Y004626D03*
X006890Y004331D03*
X005807Y008268D03*
X005709Y009350D03*
X006004Y009350D03*
X004724Y010925D03*
X004429Y010925D03*
X004429Y011220D03*
X004724Y011220D03*
X005217Y012992D03*
X005217Y013287D03*
X002559Y013976D03*
X002264Y013976D03*
X001969Y013976D03*
X001969Y014272D03*
X002264Y014272D03*
X002559Y014272D03*
X008169Y012303D03*
X008169Y012008D03*
X009055Y009744D03*
X009055Y009449D03*
X008760Y009449D03*
X009350Y009449D03*
X009350Y009744D03*
X009646Y009744D03*
X009646Y009449D03*
D19*
X003346Y010531D02*
X002657Y009843D01*
X002657Y007776D01*
X003346Y007087D01*
X001181Y007087D02*
X000492Y007776D01*
X000492Y009843D01*
X001181Y010531D01*
D20*
X006378Y008268D03*
D21*
X007382Y007382D02*
X007480Y007283D01*
X007480Y006890D01*
X007874Y006496D02*
X008169Y006201D01*
X009465Y006201D01*
X009909Y005756D01*
M02*
