G75*
G70*
%OFA0B0*%
%FSLAX24Y24*%
%IPPOS*%
%LPD*%
%AMOC8*
5,1,8,0,0,1.08239X$1,22.5*
%
%ADD10C,0.1299*%
%ADD11C,0.0118*%
%ADD12R,0.1220X0.0630*%
%ADD13R,0.0433X0.0433*%
%ADD14R,0.0827X0.0827*%
%ADD15C,0.0827*%
%ADD16R,0.0630X0.1220*%
%ADD17C,0.0591*%
D10*
X001181Y001181D03*
D11*
X006063Y008110D03*
X006220Y008110D03*
X006220Y008268D03*
X006063Y008268D03*
X006063Y008425D03*
X006220Y008425D03*
X006378Y008425D03*
X006535Y008425D03*
X006535Y008268D03*
X006535Y008110D03*
X006378Y008110D03*
D12*
X008957Y008071D03*
X008957Y008858D03*
D13*
X010433Y008268D03*
X010433Y007677D03*
X006594Y009843D03*
X006004Y009843D03*
X005807Y011220D03*
X006594Y011220D03*
X007185Y011220D03*
X007185Y012402D03*
X006594Y012402D03*
X005807Y012402D03*
X005217Y012402D03*
X005217Y011220D03*
X003346Y013484D03*
X003346Y014075D03*
X001181Y014075D03*
X001181Y013484D03*
X008760Y011909D03*
X008760Y011319D03*
X004921Y006004D03*
X004921Y005413D03*
D14*
X004724Y004331D03*
X005906Y004331D03*
X007776Y005610D03*
X008957Y005610D03*
X008957Y006791D03*
X007776Y006791D03*
D15*
X010630Y006299D03*
X010630Y009843D03*
X010630Y012205D03*
X003346Y007087D03*
X001181Y007087D03*
X003346Y004331D03*
X003346Y001181D03*
X010630Y001181D03*
D16*
X006693Y006398D03*
X005906Y006398D03*
D17*
X003346Y009531D03*
X003346Y010531D03*
X003346Y011531D03*
X001181Y011531D03*
X001181Y010531D03*
X001181Y009531D03*
M02*
