G75*
G70*
%OFA0B0*%
%FSLAX24Y24*%
%IPPOS*%
%LPD*%
%AMOC8*
5,1,8,0,0,1.08239X$1,22.5*
%
%ADD10C,0.0070*%
%ADD11C,0.0079*%
%ADD12C,0.0039*%
D10*
X002890Y001888D02*
X002944Y001834D01*
X003052Y001834D01*
X003106Y001888D01*
X003106Y001996D01*
X002998Y001996D01*
X003106Y002104D02*
X003052Y002158D01*
X002944Y002158D01*
X002890Y002104D01*
X002890Y001888D01*
X003252Y001834D02*
X003252Y002158D01*
X003468Y001834D01*
X003468Y002158D01*
X003615Y002158D02*
X003615Y001834D01*
X003777Y001834D01*
X003831Y001888D01*
X003831Y002104D01*
X003777Y002158D01*
X003615Y002158D01*
X004853Y003435D02*
X004907Y003381D01*
X005015Y003381D01*
X005069Y003435D01*
X005215Y003435D02*
X005269Y003381D01*
X005377Y003381D01*
X005431Y003435D01*
X005431Y003651D01*
X005377Y003705D01*
X005269Y003705D01*
X005215Y003651D01*
X005215Y003435D01*
X005069Y003651D02*
X005015Y003705D01*
X004907Y003705D01*
X004853Y003651D01*
X004853Y003435D01*
X005578Y003381D02*
X005794Y003597D01*
X005794Y003651D01*
X005740Y003705D01*
X005632Y003705D01*
X005578Y003651D01*
X005578Y003381D02*
X005794Y003381D01*
X007336Y004715D02*
X007390Y004661D01*
X007498Y004661D01*
X007552Y004715D01*
X007699Y004661D02*
X007806Y004661D01*
X007752Y004661D02*
X007752Y004985D01*
X007699Y004985D02*
X007806Y004985D01*
X007940Y004985D02*
X007940Y004661D01*
X008156Y004661D02*
X007940Y004985D01*
X008156Y004985D02*
X008156Y004661D01*
X008495Y004715D02*
X008495Y004931D01*
X008549Y004985D01*
X008657Y004985D01*
X008711Y004931D01*
X008857Y004931D02*
X008857Y004715D01*
X008911Y004661D01*
X009019Y004661D01*
X009073Y004715D01*
X009073Y004931D01*
X009019Y004985D01*
X008911Y004985D01*
X008857Y004931D01*
X008711Y004715D02*
X008657Y004661D01*
X008549Y004661D01*
X008495Y004715D01*
X009220Y004661D02*
X009436Y004661D01*
X009328Y004661D02*
X009328Y004985D01*
X009220Y004877D01*
X007552Y004931D02*
X007498Y004985D01*
X007390Y004985D01*
X007336Y004931D01*
X007336Y004715D01*
X006581Y005252D02*
X006365Y005252D01*
X006581Y005468D01*
X006581Y005521D01*
X006527Y005576D01*
X006419Y005576D01*
X006365Y005521D01*
X006219Y005252D02*
X006003Y005252D01*
X006003Y005576D01*
X004493Y005610D02*
X004493Y005448D01*
X004169Y005448D01*
X004169Y005610D01*
X004223Y005664D01*
X004439Y005664D01*
X004493Y005610D01*
X004493Y005811D02*
X004277Y006027D01*
X004223Y006027D01*
X004169Y005973D01*
X004169Y005865D01*
X004223Y005811D01*
X004493Y005811D02*
X004493Y006027D01*
X004022Y006137D02*
X003806Y006137D01*
X004022Y006353D01*
X004022Y006407D01*
X003968Y006461D01*
X003860Y006461D01*
X003806Y006407D01*
X003660Y006407D02*
X003660Y006353D01*
X003606Y006299D01*
X003444Y006299D01*
X003444Y006137D02*
X003444Y006461D01*
X003606Y006461D01*
X003660Y006407D01*
X003606Y006299D02*
X003660Y006245D01*
X003660Y006191D01*
X003606Y006137D01*
X003444Y006137D01*
X003189Y006137D02*
X003189Y006461D01*
X003081Y006461D02*
X003297Y006461D01*
X002935Y006407D02*
X002881Y006461D01*
X002773Y006461D01*
X002719Y006407D01*
X002719Y006353D01*
X002773Y006299D01*
X002881Y006299D01*
X002935Y006245D01*
X002935Y006191D01*
X002881Y006137D01*
X002773Y006137D01*
X002719Y006191D01*
X001857Y006137D02*
X001641Y006137D01*
X001749Y006137D02*
X001749Y006461D01*
X001641Y006353D01*
X001494Y006353D02*
X001440Y006299D01*
X001278Y006299D01*
X001278Y006137D02*
X001278Y006461D01*
X001440Y006461D01*
X001494Y006407D01*
X001494Y006353D01*
X001440Y006299D02*
X001494Y006245D01*
X001494Y006191D01*
X001440Y006137D01*
X001278Y006137D01*
X001024Y006137D02*
X001024Y006461D01*
X000916Y006461D02*
X001132Y006461D01*
X000769Y006407D02*
X000715Y006461D01*
X000607Y006461D01*
X000553Y006407D01*
X000553Y006353D01*
X000607Y006299D01*
X000715Y006299D01*
X000769Y006245D01*
X000769Y006191D01*
X000715Y006137D01*
X000607Y006137D01*
X000553Y006191D01*
X000773Y008106D02*
X000719Y008160D01*
X000773Y008106D02*
X000881Y008106D01*
X000935Y008160D01*
X000935Y008214D01*
X000881Y008268D01*
X000773Y008268D01*
X000719Y008322D01*
X000719Y008376D01*
X000773Y008430D01*
X000881Y008430D01*
X000935Y008376D01*
X001082Y008430D02*
X001082Y008106D01*
X001190Y008214D01*
X001298Y008106D01*
X001298Y008430D01*
X001444Y008322D02*
X001552Y008430D01*
X001552Y008106D01*
X001444Y008106D02*
X001660Y008106D01*
X002786Y008160D02*
X002840Y008106D01*
X002948Y008106D01*
X003002Y008160D01*
X003002Y008214D01*
X002948Y008268D01*
X002840Y008268D01*
X002786Y008322D01*
X002786Y008376D01*
X002840Y008430D01*
X002948Y008430D01*
X003002Y008376D01*
X003149Y008430D02*
X003149Y008106D01*
X003257Y008214D01*
X003365Y008106D01*
X003365Y008430D01*
X003511Y008376D02*
X003565Y008430D01*
X003673Y008430D01*
X003727Y008376D01*
X003727Y008322D01*
X003511Y008106D01*
X003727Y008106D01*
X004464Y009385D02*
X004464Y009709D01*
X004464Y009547D02*
X004680Y009547D01*
X004680Y009709D02*
X004680Y009385D01*
X005050Y010468D02*
X005050Y010792D01*
X005212Y010792D01*
X005266Y010738D01*
X005266Y010630D01*
X005212Y010576D01*
X005050Y010576D01*
X005158Y010576D02*
X005266Y010468D01*
X005412Y010468D02*
X005628Y010684D01*
X005628Y010738D01*
X005574Y010792D01*
X005466Y010792D01*
X005412Y010738D01*
X005412Y010468D02*
X005628Y010468D01*
X005775Y010468D02*
X005937Y010468D01*
X005991Y010522D01*
X005991Y010576D01*
X005937Y010630D01*
X005775Y010630D01*
X005937Y010630D02*
X005991Y010684D01*
X005991Y010738D01*
X005937Y010792D01*
X005775Y010792D01*
X005775Y010468D01*
X006329Y010468D02*
X006329Y010792D01*
X006491Y010792D01*
X006545Y010738D01*
X006545Y010630D01*
X006491Y010576D01*
X006329Y010576D01*
X006437Y010576D02*
X006545Y010468D01*
X006692Y010468D02*
X006908Y010468D01*
X006800Y010468D02*
X006800Y010792D01*
X006692Y010684D01*
X007054Y010630D02*
X007216Y010630D01*
X007270Y010576D01*
X007270Y010522D01*
X007216Y010468D01*
X007054Y010468D01*
X007054Y010792D01*
X007216Y010792D01*
X007270Y010738D01*
X007270Y010684D01*
X007216Y010630D01*
X007185Y010005D02*
X007077Y010005D01*
X007023Y009951D01*
X007023Y009735D01*
X007077Y009681D01*
X007185Y009681D01*
X007239Y009735D01*
X007386Y009789D02*
X007494Y009681D01*
X007602Y009789D01*
X007602Y010005D01*
X007748Y010005D02*
X007910Y010005D01*
X007964Y009951D01*
X007964Y009843D01*
X007910Y009789D01*
X007748Y009789D01*
X007856Y009789D02*
X007964Y009681D01*
X008111Y009681D02*
X008111Y010005D01*
X008327Y010005D01*
X008473Y010005D02*
X008473Y009681D01*
X008327Y009681D02*
X008111Y009681D01*
X008111Y009843D02*
X008219Y009843D01*
X008473Y009843D02*
X008581Y009843D01*
X008473Y010005D02*
X008689Y010005D01*
X009188Y010754D02*
X009188Y010862D01*
X009188Y010808D02*
X009458Y010808D01*
X009512Y010754D01*
X009512Y010700D01*
X009458Y010646D01*
X009512Y011009D02*
X009188Y011009D01*
X009188Y011171D01*
X009242Y011225D01*
X009458Y011225D01*
X009512Y011171D01*
X009512Y011009D01*
X009512Y011371D02*
X009512Y011479D01*
X009512Y011425D02*
X009188Y011425D01*
X009188Y011371D02*
X009188Y011479D01*
X009242Y011613D02*
X009188Y011667D01*
X009188Y011775D01*
X009242Y011829D01*
X009350Y011775D02*
X009404Y011829D01*
X009458Y011829D01*
X009512Y011775D01*
X009512Y011667D01*
X009458Y011613D01*
X009350Y011667D02*
X009350Y011775D01*
X009350Y011667D02*
X009296Y011613D01*
X009242Y011613D01*
X009296Y011976D02*
X009188Y012084D01*
X009512Y012084D01*
X009512Y012191D02*
X009512Y011976D01*
X010196Y012830D02*
X010304Y012830D01*
X010358Y012884D01*
X010358Y012992D01*
X010250Y012992D01*
X010358Y013100D02*
X010304Y013154D01*
X010196Y013154D01*
X010142Y013100D01*
X010142Y012884D01*
X010196Y012830D01*
X010504Y012830D02*
X010504Y013154D01*
X010720Y012830D01*
X010720Y013154D01*
X010867Y013154D02*
X011029Y013154D01*
X011083Y013100D01*
X011083Y012884D01*
X011029Y012830D01*
X010867Y012830D01*
X010867Y013154D01*
X010193Y013824D02*
X010031Y013824D01*
X010031Y013716D02*
X010031Y014040D01*
X010193Y014040D01*
X010247Y013986D01*
X010247Y013878D01*
X010193Y013824D01*
X009884Y013824D02*
X009830Y013878D01*
X009722Y013878D01*
X009669Y013932D01*
X009669Y013986D01*
X009722Y014040D01*
X009830Y014040D01*
X009884Y013986D01*
X009884Y013824D02*
X009884Y013770D01*
X009830Y013716D01*
X009722Y013716D01*
X009669Y013770D01*
X009522Y013770D02*
X009468Y013716D01*
X009360Y013716D01*
X009306Y013770D01*
X009306Y013986D01*
X009360Y014040D01*
X009468Y014040D01*
X009522Y013986D01*
X009160Y013716D02*
X008944Y013716D01*
X008944Y014040D01*
X008797Y014040D02*
X008797Y013716D01*
X008689Y013824D01*
X008581Y013716D01*
X008581Y014040D01*
X008072Y013716D02*
X007856Y013716D01*
X007856Y014040D01*
X007710Y014040D02*
X007710Y013716D01*
X007602Y013824D01*
X007494Y013716D01*
X007494Y014040D01*
X007347Y013986D02*
X007293Y014040D01*
X007185Y014040D01*
X007131Y013986D01*
X007131Y013770D01*
X007185Y013716D01*
X007293Y013716D01*
X007347Y013770D01*
X007347Y013878D01*
X007239Y013878D01*
X006985Y013824D02*
X006931Y013878D01*
X006769Y013878D01*
X006769Y013770D01*
X006823Y013716D01*
X006931Y013716D01*
X006985Y013770D01*
X006985Y013824D01*
X006877Y013986D02*
X006769Y013878D01*
X006877Y013986D02*
X006985Y014040D01*
X006514Y014040D02*
X006514Y013716D01*
X006406Y013716D02*
X006622Y013716D01*
X006406Y013932D02*
X006514Y014040D01*
X006260Y013986D02*
X006260Y013932D01*
X006206Y013878D01*
X006260Y013824D01*
X006260Y013770D01*
X006206Y013716D01*
X006098Y013716D01*
X006044Y013770D01*
X005897Y013770D02*
X005843Y013716D01*
X005735Y013716D01*
X005681Y013770D01*
X005681Y013824D01*
X005735Y013878D01*
X005843Y013878D01*
X005897Y013824D01*
X005897Y013770D01*
X005843Y013878D02*
X005897Y013932D01*
X005897Y013986D01*
X005843Y014040D01*
X005735Y014040D01*
X005681Y013986D01*
X005681Y013932D01*
X005735Y013878D01*
X005535Y013770D02*
X005535Y013986D01*
X005481Y014040D01*
X005319Y014040D01*
X005319Y013716D01*
X005481Y013716D01*
X005535Y013770D01*
X006044Y013986D02*
X006098Y014040D01*
X006206Y014040D01*
X006260Y013986D01*
X006206Y013878D02*
X006152Y013878D01*
X005172Y013824D02*
X005172Y013770D01*
X005118Y013716D01*
X004956Y013716D01*
X004956Y014040D01*
X005118Y014040D01*
X005172Y013986D01*
X005172Y013932D01*
X005118Y013878D01*
X004956Y013878D01*
X005118Y013878D02*
X005172Y013824D01*
X004079Y013703D02*
X003755Y013703D01*
X003755Y013595D02*
X003755Y013811D01*
X003755Y013957D02*
X003755Y014119D01*
X003809Y014173D01*
X003863Y014173D01*
X003917Y014119D01*
X003917Y013957D01*
X004079Y013957D02*
X003755Y013957D01*
X003917Y014119D02*
X003971Y014173D01*
X004025Y014173D01*
X004079Y014119D01*
X004079Y013957D01*
X004079Y014320D02*
X003863Y014536D01*
X003809Y014536D01*
X003755Y014482D01*
X003755Y014374D01*
X003809Y014320D01*
X004079Y014320D02*
X004079Y014536D01*
X004025Y013448D02*
X004079Y013394D01*
X004079Y013286D01*
X004025Y013232D01*
X003917Y013286D02*
X003917Y013394D01*
X003971Y013448D01*
X004025Y013448D01*
X003917Y013286D02*
X003863Y013232D01*
X003809Y013232D01*
X003755Y013286D01*
X003755Y013394D01*
X003809Y013448D01*
X003755Y013086D02*
X003755Y012978D01*
X003755Y013032D02*
X004025Y013032D01*
X004079Y012978D01*
X004079Y012924D01*
X004025Y012870D01*
X004951Y011973D02*
X005113Y011973D01*
X005167Y011919D01*
X005167Y011811D01*
X005113Y011757D01*
X004951Y011757D01*
X004951Y011649D02*
X004951Y011973D01*
X005059Y011757D02*
X005167Y011649D01*
X005314Y011649D02*
X005530Y011865D01*
X005530Y011919D01*
X005476Y011973D01*
X005368Y011973D01*
X005314Y011919D01*
X005314Y011649D02*
X005530Y011649D01*
X005676Y011649D02*
X005676Y011865D01*
X005784Y011973D01*
X005892Y011865D01*
X005892Y011649D01*
X005892Y011811D02*
X005676Y011811D01*
X006329Y011757D02*
X006491Y011757D01*
X006545Y011811D01*
X006545Y011919D01*
X006491Y011973D01*
X006329Y011973D01*
X006329Y011649D01*
X006437Y011757D02*
X006545Y011649D01*
X006692Y011649D02*
X006908Y011649D01*
X006800Y011649D02*
X006800Y011973D01*
X006692Y011865D01*
X007054Y011865D02*
X007054Y011649D01*
X007054Y011811D02*
X007270Y011811D01*
X007270Y011865D02*
X007270Y011649D01*
X007270Y011865D02*
X007162Y011973D01*
X007054Y011865D01*
X007185Y010005D02*
X007239Y009951D01*
X007386Y010005D02*
X007386Y009789D01*
X007748Y009681D02*
X007748Y010005D01*
X006509Y009119D02*
X006509Y008795D01*
X006401Y008795D02*
X006617Y008795D01*
X006401Y009011D02*
X006509Y009119D01*
X006255Y009119D02*
X006255Y008849D01*
X006201Y008795D01*
X006093Y008795D01*
X006039Y008849D01*
X006039Y009119D01*
X007810Y008675D02*
X007918Y008567D01*
X007810Y008675D02*
X008134Y008675D01*
X008134Y008567D02*
X008134Y008783D01*
X008134Y008420D02*
X008134Y008204D01*
X007810Y008204D01*
X010240Y007249D02*
X010240Y007033D01*
X010348Y006925D01*
X010456Y007033D01*
X010456Y007249D01*
X010602Y007195D02*
X010656Y007249D01*
X010764Y007249D01*
X010818Y007195D01*
X010818Y006979D01*
X010764Y006925D01*
X010656Y006925D01*
X010602Y006979D01*
X010602Y007195D01*
X010965Y007141D02*
X011073Y007249D01*
X011073Y006925D01*
X010965Y006925D02*
X011181Y006925D01*
X011185Y007775D02*
X010861Y007775D01*
X010861Y007937D01*
X010916Y007991D01*
X011131Y007991D01*
X011185Y007937D01*
X011185Y007775D01*
X011185Y008137D02*
X011185Y008353D01*
X011185Y008245D02*
X010861Y008245D01*
X010969Y008137D01*
X011029Y010468D02*
X010867Y010468D01*
X010867Y010792D01*
X011029Y010792D01*
X011083Y010738D01*
X011083Y010522D01*
X011029Y010468D01*
X010720Y010468D02*
X010720Y010792D01*
X010504Y010792D02*
X010720Y010468D01*
X010504Y010468D02*
X010504Y010792D01*
X010358Y010738D02*
X010304Y010792D01*
X010196Y010792D01*
X010142Y010738D01*
X010142Y010522D01*
X010196Y010468D01*
X010304Y010468D01*
X010358Y010522D01*
X010358Y010630D01*
X010250Y010630D01*
X004680Y011354D02*
X004464Y011354D01*
X004464Y011678D01*
X000752Y012983D02*
X000752Y013037D01*
X000698Y013091D01*
X000428Y013091D01*
X000428Y013037D02*
X000428Y013145D01*
X000482Y013291D02*
X000536Y013291D01*
X000590Y013345D01*
X000590Y013453D01*
X000644Y013507D01*
X000698Y013507D01*
X000752Y013453D01*
X000752Y013345D01*
X000698Y013291D01*
X000482Y013291D02*
X000428Y013345D01*
X000428Y013453D01*
X000482Y013507D01*
X000428Y013654D02*
X000428Y013870D01*
X000428Y013762D02*
X000752Y013762D01*
X000752Y014016D02*
X000428Y014016D01*
X000428Y014178D01*
X000482Y014232D01*
X000536Y014232D01*
X000590Y014178D01*
X000590Y014016D01*
X000590Y014178D02*
X000644Y014232D01*
X000698Y014232D01*
X000752Y014178D01*
X000752Y014016D01*
X000752Y014379D02*
X000752Y014595D01*
X000752Y014487D02*
X000428Y014487D01*
X000536Y014379D01*
X000752Y012983D02*
X000698Y012929D01*
X002957Y005280D02*
X002957Y005064D01*
X003065Y004956D01*
X003173Y005064D01*
X003173Y005280D01*
X003319Y005226D02*
X003319Y005010D01*
X003373Y004956D01*
X003481Y004956D01*
X003535Y005010D01*
X003535Y005226D01*
X003481Y005280D01*
X003373Y005280D01*
X003319Y005226D01*
X003681Y005226D02*
X003735Y005280D01*
X003843Y005280D01*
X003897Y005226D01*
X003897Y005172D01*
X003681Y004956D01*
X003897Y004956D01*
X009945Y002131D02*
X009945Y001915D01*
X010053Y001807D01*
X010161Y001915D01*
X010161Y002131D01*
X010307Y002131D02*
X010469Y002131D01*
X010523Y002077D01*
X010523Y002023D01*
X010469Y001969D01*
X010307Y001969D01*
X010307Y001807D02*
X010307Y002131D01*
X010469Y001969D02*
X010523Y001915D01*
X010523Y001861D01*
X010469Y001807D01*
X010307Y001807D01*
X010670Y001807D02*
X010670Y002023D01*
X010778Y002131D01*
X010886Y002023D01*
X010886Y001807D01*
X010886Y001969D02*
X010670Y001969D01*
X011032Y002131D02*
X011248Y002131D01*
X011140Y002131D02*
X011140Y001807D01*
D11*
X010156Y001181D02*
X010158Y001224D01*
X010164Y001267D01*
X010174Y001309D01*
X010187Y001350D01*
X010204Y001389D01*
X010225Y001427D01*
X010249Y001463D01*
X010276Y001497D01*
X010306Y001527D01*
X010339Y001555D01*
X010375Y001580D01*
X010412Y001602D01*
X010451Y001620D01*
X010492Y001634D01*
X010534Y001645D01*
X010576Y001652D01*
X010619Y001655D01*
X010662Y001654D01*
X010705Y001649D01*
X010747Y001640D01*
X010789Y001628D01*
X010829Y001611D01*
X010867Y001591D01*
X010903Y001568D01*
X010937Y001542D01*
X010969Y001512D01*
X010998Y001480D01*
X011023Y001445D01*
X011046Y001409D01*
X011065Y001370D01*
X011080Y001330D01*
X011092Y001288D01*
X011100Y001246D01*
X011104Y001203D01*
X011104Y001159D01*
X011100Y001116D01*
X011092Y001074D01*
X011080Y001032D01*
X011065Y000992D01*
X011046Y000953D01*
X011023Y000917D01*
X010998Y000882D01*
X010969Y000850D01*
X010937Y000820D01*
X010903Y000794D01*
X010867Y000771D01*
X010829Y000751D01*
X010789Y000734D01*
X010747Y000722D01*
X010705Y000713D01*
X010662Y000708D01*
X010619Y000707D01*
X010576Y000710D01*
X010534Y000717D01*
X010492Y000728D01*
X010451Y000742D01*
X010412Y000760D01*
X010375Y000782D01*
X010339Y000807D01*
X010306Y000835D01*
X010276Y000865D01*
X010249Y000899D01*
X010225Y000935D01*
X010204Y000973D01*
X010187Y001012D01*
X010174Y001053D01*
X010164Y001095D01*
X010158Y001138D01*
X010156Y001181D01*
X006378Y003858D02*
X006378Y004803D01*
X004252Y004803D01*
X004252Y003858D01*
X006378Y003858D01*
X005197Y005000D02*
X005197Y006142D01*
X005197Y006181D01*
X005197Y006280D01*
X004646Y006280D01*
X004646Y006181D01*
X004646Y006142D01*
X004646Y005000D01*
X005197Y005000D01*
X005197Y005039D02*
X005197Y006142D01*
X005197Y006181D01*
X005197Y006142D02*
X005197Y005138D01*
X004646Y005138D01*
X004646Y006142D01*
X004646Y005039D01*
X005197Y005039D01*
X005197Y005079D02*
X004646Y005079D01*
X004646Y005118D02*
X005197Y005118D01*
X005531Y005728D02*
X005531Y007067D01*
X007067Y007067D01*
X007067Y005728D01*
X005531Y005728D01*
X004646Y006142D02*
X004646Y006181D01*
X002872Y007087D02*
X002874Y007130D01*
X002880Y007173D01*
X002890Y007215D01*
X002903Y007256D01*
X002920Y007295D01*
X002941Y007333D01*
X002965Y007369D01*
X002992Y007403D01*
X003022Y007433D01*
X003055Y007461D01*
X003091Y007486D01*
X003128Y007508D01*
X003167Y007526D01*
X003208Y007540D01*
X003250Y007551D01*
X003292Y007558D01*
X003335Y007561D01*
X003378Y007560D01*
X003421Y007555D01*
X003463Y007546D01*
X003505Y007534D01*
X003545Y007517D01*
X003583Y007497D01*
X003619Y007474D01*
X003653Y007448D01*
X003685Y007418D01*
X003714Y007386D01*
X003739Y007351D01*
X003762Y007315D01*
X003781Y007276D01*
X003796Y007236D01*
X003808Y007194D01*
X003816Y007152D01*
X003820Y007109D01*
X003820Y007065D01*
X003816Y007022D01*
X003808Y006980D01*
X003796Y006938D01*
X003781Y006898D01*
X003762Y006859D01*
X003739Y006823D01*
X003714Y006788D01*
X003685Y006756D01*
X003653Y006726D01*
X003619Y006700D01*
X003583Y006677D01*
X003545Y006657D01*
X003505Y006640D01*
X003463Y006628D01*
X003421Y006619D01*
X003378Y006614D01*
X003335Y006613D01*
X003292Y006616D01*
X003250Y006623D01*
X003208Y006634D01*
X003167Y006648D01*
X003128Y006666D01*
X003091Y006688D01*
X003055Y006713D01*
X003022Y006741D01*
X002992Y006771D01*
X002965Y006805D01*
X002941Y006841D01*
X002920Y006879D01*
X002903Y006918D01*
X002890Y006959D01*
X002880Y007001D01*
X002874Y007044D01*
X002872Y007087D01*
X002362Y008563D02*
X002362Y012500D01*
X004331Y012500D01*
X004331Y008563D01*
X002362Y008563D01*
X002165Y008563D02*
X000197Y008563D01*
X000197Y012500D01*
X002165Y012500D01*
X002165Y008563D01*
X000707Y007087D02*
X000709Y007130D01*
X000715Y007173D01*
X000725Y007215D01*
X000738Y007256D01*
X000755Y007295D01*
X000776Y007333D01*
X000800Y007369D01*
X000827Y007403D01*
X000857Y007433D01*
X000890Y007461D01*
X000926Y007486D01*
X000963Y007508D01*
X001002Y007526D01*
X001043Y007540D01*
X001085Y007551D01*
X001127Y007558D01*
X001170Y007561D01*
X001213Y007560D01*
X001256Y007555D01*
X001298Y007546D01*
X001340Y007534D01*
X001380Y007517D01*
X001418Y007497D01*
X001454Y007474D01*
X001488Y007448D01*
X001520Y007418D01*
X001549Y007386D01*
X001574Y007351D01*
X001597Y007315D01*
X001616Y007276D01*
X001631Y007236D01*
X001643Y007194D01*
X001651Y007152D01*
X001655Y007109D01*
X001655Y007065D01*
X001651Y007022D01*
X001643Y006980D01*
X001631Y006938D01*
X001616Y006898D01*
X001597Y006859D01*
X001574Y006823D01*
X001549Y006788D01*
X001520Y006756D01*
X001488Y006726D01*
X001454Y006700D01*
X001418Y006677D01*
X001380Y006657D01*
X001340Y006640D01*
X001298Y006628D01*
X001256Y006619D01*
X001213Y006614D01*
X001170Y006613D01*
X001127Y006616D01*
X001085Y006623D01*
X001043Y006634D01*
X001002Y006648D01*
X000963Y006666D01*
X000926Y006688D01*
X000890Y006713D01*
X000857Y006741D01*
X000827Y006771D01*
X000800Y006805D01*
X000776Y006841D01*
X000755Y006879D01*
X000738Y006918D01*
X000725Y006959D01*
X000715Y007001D01*
X000709Y007044D01*
X000707Y007087D01*
X002872Y004331D02*
X002874Y004374D01*
X002880Y004417D01*
X002890Y004459D01*
X002903Y004500D01*
X002920Y004539D01*
X002941Y004577D01*
X002965Y004613D01*
X002992Y004647D01*
X003022Y004677D01*
X003055Y004705D01*
X003091Y004730D01*
X003128Y004752D01*
X003167Y004770D01*
X003208Y004784D01*
X003250Y004795D01*
X003292Y004802D01*
X003335Y004805D01*
X003378Y004804D01*
X003421Y004799D01*
X003463Y004790D01*
X003505Y004778D01*
X003545Y004761D01*
X003583Y004741D01*
X003619Y004718D01*
X003653Y004692D01*
X003685Y004662D01*
X003714Y004630D01*
X003739Y004595D01*
X003762Y004559D01*
X003781Y004520D01*
X003796Y004480D01*
X003808Y004438D01*
X003816Y004396D01*
X003820Y004353D01*
X003820Y004309D01*
X003816Y004266D01*
X003808Y004224D01*
X003796Y004182D01*
X003781Y004142D01*
X003762Y004103D01*
X003739Y004067D01*
X003714Y004032D01*
X003685Y004000D01*
X003653Y003970D01*
X003619Y003944D01*
X003583Y003921D01*
X003545Y003901D01*
X003505Y003884D01*
X003463Y003872D01*
X003421Y003863D01*
X003378Y003858D01*
X003335Y003857D01*
X003292Y003860D01*
X003250Y003867D01*
X003208Y003878D01*
X003167Y003892D01*
X003128Y003910D01*
X003091Y003932D01*
X003055Y003957D01*
X003022Y003985D01*
X002992Y004015D01*
X002965Y004049D01*
X002941Y004085D01*
X002920Y004123D01*
X002903Y004162D01*
X002890Y004203D01*
X002880Y004245D01*
X002874Y004288D01*
X002872Y004331D01*
X002872Y001181D02*
X002874Y001224D01*
X002880Y001267D01*
X002890Y001309D01*
X002903Y001350D01*
X002920Y001389D01*
X002941Y001427D01*
X002965Y001463D01*
X002992Y001497D01*
X003022Y001527D01*
X003055Y001555D01*
X003091Y001580D01*
X003128Y001602D01*
X003167Y001620D01*
X003208Y001634D01*
X003250Y001645D01*
X003292Y001652D01*
X003335Y001655D01*
X003378Y001654D01*
X003421Y001649D01*
X003463Y001640D01*
X003505Y001628D01*
X003545Y001611D01*
X003583Y001591D01*
X003619Y001568D01*
X003653Y001542D01*
X003685Y001512D01*
X003714Y001480D01*
X003739Y001445D01*
X003762Y001409D01*
X003781Y001370D01*
X003796Y001330D01*
X003808Y001288D01*
X003816Y001246D01*
X003820Y001203D01*
X003820Y001159D01*
X003816Y001116D01*
X003808Y001074D01*
X003796Y001032D01*
X003781Y000992D01*
X003762Y000953D01*
X003739Y000917D01*
X003714Y000882D01*
X003685Y000850D01*
X003653Y000820D01*
X003619Y000794D01*
X003583Y000771D01*
X003545Y000751D01*
X003505Y000734D01*
X003463Y000722D01*
X003421Y000713D01*
X003378Y000708D01*
X003335Y000707D01*
X003292Y000710D01*
X003250Y000717D01*
X003208Y000728D01*
X003167Y000742D01*
X003128Y000760D01*
X003091Y000782D01*
X003055Y000807D01*
X003022Y000835D01*
X002992Y000865D01*
X002965Y000899D01*
X002941Y000935D01*
X002920Y000973D01*
X002903Y001012D01*
X002890Y001053D01*
X002880Y001095D01*
X002874Y001138D01*
X002872Y001181D01*
X007303Y005138D02*
X008248Y005138D01*
X008248Y007264D01*
X007303Y007264D01*
X007303Y005138D01*
X008484Y005138D02*
X009429Y005138D01*
X009429Y007264D01*
X008484Y007264D01*
X008484Y005138D01*
X010156Y006299D02*
X010158Y006342D01*
X010164Y006385D01*
X010174Y006427D01*
X010187Y006468D01*
X010204Y006507D01*
X010225Y006545D01*
X010249Y006581D01*
X010276Y006615D01*
X010306Y006645D01*
X010339Y006673D01*
X010375Y006698D01*
X010412Y006720D01*
X010451Y006738D01*
X010492Y006752D01*
X010534Y006763D01*
X010576Y006770D01*
X010619Y006773D01*
X010662Y006772D01*
X010705Y006767D01*
X010747Y006758D01*
X010789Y006746D01*
X010829Y006729D01*
X010867Y006709D01*
X010903Y006686D01*
X010937Y006660D01*
X010969Y006630D01*
X010998Y006598D01*
X011023Y006563D01*
X011046Y006527D01*
X011065Y006488D01*
X011080Y006448D01*
X011092Y006406D01*
X011100Y006364D01*
X011104Y006321D01*
X011104Y006277D01*
X011100Y006234D01*
X011092Y006192D01*
X011080Y006150D01*
X011065Y006110D01*
X011046Y006071D01*
X011023Y006035D01*
X010998Y006000D01*
X010969Y005968D01*
X010937Y005938D01*
X010903Y005912D01*
X010867Y005889D01*
X010829Y005869D01*
X010789Y005852D01*
X010747Y005840D01*
X010705Y005831D01*
X010662Y005826D01*
X010619Y005825D01*
X010576Y005828D01*
X010534Y005835D01*
X010492Y005846D01*
X010451Y005860D01*
X010412Y005878D01*
X010375Y005900D01*
X010339Y005925D01*
X010306Y005953D01*
X010276Y005983D01*
X010249Y006017D01*
X010225Y006053D01*
X010204Y006091D01*
X010187Y006130D01*
X010174Y006171D01*
X010164Y006213D01*
X010158Y006256D01*
X010156Y006299D01*
X010157Y007402D02*
X010709Y007402D01*
X010709Y007500D01*
X010709Y007539D01*
X010709Y008681D01*
X010157Y008681D01*
X010157Y007539D01*
X010157Y007500D01*
X010157Y007402D01*
X010157Y007500D02*
X010157Y007539D01*
X010157Y008642D01*
X010709Y008642D01*
X010709Y007539D01*
X010709Y008543D01*
X010157Y008543D01*
X010157Y007539D01*
X010709Y007539D02*
X010709Y007500D01*
X010709Y008563D02*
X010157Y008563D01*
X010157Y008602D02*
X010709Y008602D01*
X009626Y009232D02*
X009626Y007697D01*
X008287Y007697D01*
X008287Y009232D01*
X009626Y009232D01*
X010156Y009843D02*
X010158Y009886D01*
X010164Y009929D01*
X010174Y009971D01*
X010187Y010012D01*
X010204Y010051D01*
X010225Y010089D01*
X010249Y010125D01*
X010276Y010159D01*
X010306Y010189D01*
X010339Y010217D01*
X010375Y010242D01*
X010412Y010264D01*
X010451Y010282D01*
X010492Y010296D01*
X010534Y010307D01*
X010576Y010314D01*
X010619Y010317D01*
X010662Y010316D01*
X010705Y010311D01*
X010747Y010302D01*
X010789Y010290D01*
X010829Y010273D01*
X010867Y010253D01*
X010903Y010230D01*
X010937Y010204D01*
X010969Y010174D01*
X010998Y010142D01*
X011023Y010107D01*
X011046Y010071D01*
X011065Y010032D01*
X011080Y009992D01*
X011092Y009950D01*
X011100Y009908D01*
X011104Y009865D01*
X011104Y009821D01*
X011100Y009778D01*
X011092Y009736D01*
X011080Y009694D01*
X011065Y009654D01*
X011046Y009615D01*
X011023Y009579D01*
X010998Y009544D01*
X010969Y009512D01*
X010937Y009482D01*
X010903Y009456D01*
X010867Y009433D01*
X010829Y009413D01*
X010789Y009396D01*
X010747Y009384D01*
X010705Y009375D01*
X010662Y009370D01*
X010619Y009369D01*
X010576Y009372D01*
X010534Y009379D01*
X010492Y009390D01*
X010451Y009404D01*
X010412Y009422D01*
X010375Y009444D01*
X010339Y009469D01*
X010306Y009497D01*
X010276Y009527D01*
X010249Y009561D01*
X010225Y009597D01*
X010204Y009635D01*
X010187Y009674D01*
X010174Y009715D01*
X010164Y009757D01*
X010158Y009800D01*
X010156Y009843D01*
X009035Y011043D02*
X008484Y011043D01*
X008484Y012047D01*
X008484Y012087D01*
X008484Y012047D01*
X008484Y012087D02*
X008484Y012185D01*
X009035Y012185D01*
X009035Y012087D01*
X009035Y012047D01*
X009035Y012087D01*
X009035Y012047D02*
X009035Y011043D01*
X010156Y012205D02*
X010158Y012248D01*
X010164Y012291D01*
X010174Y012333D01*
X010187Y012374D01*
X010204Y012413D01*
X010225Y012451D01*
X010249Y012487D01*
X010276Y012521D01*
X010306Y012551D01*
X010339Y012579D01*
X010375Y012604D01*
X010412Y012626D01*
X010451Y012644D01*
X010492Y012658D01*
X010534Y012669D01*
X010576Y012676D01*
X010619Y012679D01*
X010662Y012678D01*
X010705Y012673D01*
X010747Y012664D01*
X010789Y012652D01*
X010829Y012635D01*
X010867Y012615D01*
X010903Y012592D01*
X010937Y012566D01*
X010969Y012536D01*
X010998Y012504D01*
X011023Y012469D01*
X011046Y012433D01*
X011065Y012394D01*
X011080Y012354D01*
X011092Y012312D01*
X011100Y012270D01*
X011104Y012227D01*
X011104Y012183D01*
X011100Y012140D01*
X011092Y012098D01*
X011080Y012056D01*
X011065Y012016D01*
X011046Y011977D01*
X011023Y011941D01*
X010998Y011906D01*
X010969Y011874D01*
X010937Y011844D01*
X010903Y011818D01*
X010867Y011795D01*
X010829Y011775D01*
X010789Y011758D01*
X010747Y011746D01*
X010705Y011737D01*
X010662Y011732D01*
X010619Y011731D01*
X010576Y011734D01*
X010534Y011741D01*
X010492Y011752D01*
X010451Y011766D01*
X010412Y011784D01*
X010375Y011806D01*
X010339Y011831D01*
X010306Y011859D01*
X010276Y011889D01*
X010249Y011923D01*
X010225Y011959D01*
X010204Y011997D01*
X010187Y012036D01*
X010174Y012077D01*
X010164Y012119D01*
X010158Y012162D01*
X010156Y012205D01*
X007461Y012126D02*
X007461Y012677D01*
X007362Y012677D01*
X007323Y012677D01*
X006319Y012677D01*
X006319Y012126D01*
X007323Y012126D01*
X007362Y012126D01*
X007461Y012126D01*
X007362Y012126D02*
X007323Y012126D01*
X007323Y012677D02*
X007362Y012677D01*
X007461Y011496D02*
X006457Y011496D01*
X006417Y011496D01*
X006319Y011496D01*
X006319Y010945D01*
X006417Y010945D01*
X006457Y010945D01*
X007461Y010945D01*
X007461Y011496D01*
X006457Y011496D02*
X006417Y011496D01*
X006083Y011496D02*
X006083Y010945D01*
X005984Y010945D01*
X005945Y010945D01*
X005984Y010945D01*
X005945Y010945D02*
X004941Y010945D01*
X004941Y011496D01*
X005945Y011496D01*
X005984Y011496D01*
X005945Y011496D01*
X005984Y011496D02*
X006083Y011496D01*
X006417Y010945D02*
X006457Y010945D01*
X006732Y010118D02*
X005728Y010118D01*
X005728Y009567D01*
X006732Y009567D01*
X006772Y009567D01*
X006870Y009567D01*
X006870Y010118D01*
X006772Y010118D01*
X006732Y010118D01*
X006772Y010118D01*
X006772Y009567D02*
X006732Y009567D01*
X006693Y008602D02*
X005906Y008602D01*
X005906Y007933D01*
X006693Y007933D01*
X006693Y008602D01*
X006511Y007776D02*
X006513Y007789D01*
X006519Y007801D01*
X006528Y007810D01*
X006539Y007817D01*
X006552Y007820D01*
X006565Y007819D01*
X006577Y007814D01*
X006587Y007806D01*
X006595Y007795D01*
X006599Y007783D01*
X006599Y007769D01*
X006595Y007757D01*
X006587Y007746D01*
X006577Y007738D01*
X006565Y007733D01*
X006552Y007732D01*
X006539Y007735D01*
X006528Y007742D01*
X006519Y007751D01*
X006513Y007763D01*
X006511Y007776D01*
X006083Y012126D02*
X005079Y012126D01*
X005039Y012126D01*
X005079Y012126D01*
X005039Y012126D02*
X004941Y012126D01*
X004941Y012677D01*
X005039Y012677D01*
X005079Y012677D01*
X005039Y012677D01*
X005079Y012677D02*
X006083Y012677D01*
X006083Y012126D01*
X003622Y013209D02*
X003071Y013209D01*
X003071Y014213D01*
X003071Y014252D01*
X003071Y014213D01*
X003071Y014252D02*
X003071Y014350D01*
X003622Y014350D01*
X003622Y014252D01*
X003622Y014213D01*
X003622Y014252D01*
X003622Y014213D02*
X003622Y013209D01*
X001457Y013209D02*
X000906Y013209D01*
X000906Y014213D01*
X000906Y014252D01*
X000906Y014213D01*
X000906Y014252D02*
X000906Y014350D01*
X001457Y014350D01*
X001457Y014252D01*
X001457Y014213D01*
X001457Y014252D01*
X001457Y014213D02*
X001457Y013209D01*
D12*
X004933Y014313D02*
X004933Y014324D01*
X004949Y014321D02*
X004949Y014316D01*
X004933Y014313D02*
X004935Y014303D01*
X004939Y014294D01*
X004947Y014286D01*
X004956Y014282D01*
X004966Y014280D01*
X004985Y014280D01*
X005062Y014280D01*
X005082Y014280D01*
X005092Y014278D01*
X005101Y014274D01*
X005108Y014267D01*
X005112Y014258D01*
X005114Y014248D01*
X005114Y014225D01*
X005112Y014215D01*
X005108Y014206D01*
X005101Y014199D01*
X005092Y014195D01*
X005082Y014193D01*
X005062Y014193D01*
X004949Y014193D01*
X005062Y014193D02*
X005073Y014195D01*
X005083Y014200D01*
X005091Y014208D01*
X005096Y014218D01*
X005098Y014229D01*
X005098Y014243D02*
X005096Y014254D01*
X005091Y014264D01*
X005083Y014272D01*
X005073Y014277D01*
X005062Y014279D01*
X004985Y014280D02*
X004974Y014282D01*
X004964Y014287D01*
X004956Y014295D01*
X004951Y014305D01*
X004949Y014316D01*
X004933Y014324D02*
X004935Y014335D01*
X004939Y014344D01*
X004947Y014352D01*
X004956Y014356D01*
X004967Y014358D01*
X004986Y014358D01*
X005098Y014358D01*
X004986Y014358D02*
X004976Y014357D01*
X004968Y014353D01*
X004960Y014347D01*
X004954Y014339D01*
X004950Y014331D01*
X004949Y014321D01*
X005217Y014298D02*
X005217Y014276D01*
X005366Y014276D01*
X005366Y014358D02*
X005295Y014358D01*
X005286Y014358D01*
X005295Y014358D02*
X005276Y014358D01*
X005286Y014358D02*
X005274Y014356D01*
X005263Y014352D01*
X005253Y014345D01*
X005246Y014335D01*
X005242Y014324D01*
X005240Y014312D01*
X005240Y014240D01*
X005217Y014251D02*
X005217Y014276D01*
X005216Y014251D02*
X005217Y014238D01*
X005222Y014225D01*
X005229Y014214D01*
X005238Y014205D01*
X005249Y014198D01*
X005262Y014193D01*
X005275Y014192D01*
X005275Y014193D02*
X005291Y014193D01*
X005288Y014193D01*
X005291Y014193D02*
X005366Y014193D01*
X005288Y014193D02*
X005276Y014195D01*
X005265Y014199D01*
X005255Y014207D01*
X005247Y014216D01*
X005243Y014228D01*
X005241Y014240D01*
X005217Y014298D02*
X005219Y014311D01*
X005223Y014324D01*
X005230Y014335D01*
X005240Y014345D01*
X005251Y014352D01*
X005264Y014356D01*
X005277Y014358D01*
X005500Y014358D02*
X005531Y014358D01*
X005594Y014193D01*
X005661Y014358D01*
X005697Y014358D01*
X005697Y014193D01*
X005831Y014193D02*
X005831Y014358D01*
X005846Y014358D02*
X005846Y014193D01*
X005972Y014244D02*
X005972Y014307D01*
X005988Y014302D02*
X005988Y014243D01*
X005973Y014244D02*
X005975Y014231D01*
X005980Y014218D01*
X005988Y014208D01*
X005999Y014200D01*
X006011Y014195D01*
X006024Y014193D01*
X006047Y014193D01*
X006038Y014193D01*
X006047Y014193D02*
X006114Y014193D01*
X006038Y014193D02*
X006025Y014195D01*
X006013Y014200D01*
X006003Y014208D01*
X005995Y014218D01*
X005990Y014230D01*
X005988Y014243D01*
X005973Y014307D02*
X005975Y014320D01*
X005980Y014332D01*
X005988Y014343D01*
X005999Y014351D01*
X006011Y014356D01*
X006024Y014358D01*
X006047Y014358D01*
X006045Y014358D01*
X006047Y014358D02*
X006114Y014358D01*
X006045Y014358D02*
X006030Y014356D01*
X006017Y014350D01*
X006005Y014342D01*
X005997Y014330D01*
X005991Y014317D01*
X005989Y014302D01*
X006217Y014290D02*
X006217Y014259D01*
X006232Y014245D02*
X006232Y014308D01*
X006233Y014321D01*
X006238Y014334D01*
X006245Y014345D01*
X006254Y014354D01*
X006265Y014361D01*
X006278Y014366D01*
X006291Y014367D01*
X006291Y014366D02*
X006299Y014366D01*
X006332Y014366D01*
X006328Y014366D02*
X006299Y014366D01*
X006293Y014366D01*
X006332Y014366D02*
X006345Y014365D01*
X006357Y014360D01*
X006368Y014353D01*
X006377Y014344D01*
X006384Y014333D01*
X006389Y014321D01*
X006390Y014308D01*
X006390Y014245D01*
X006406Y014260D02*
X006406Y014289D01*
X006405Y014304D01*
X006400Y014319D01*
X006393Y014332D01*
X006383Y014344D01*
X006371Y014354D01*
X006358Y014361D01*
X006343Y014366D01*
X006328Y014367D01*
X006293Y014366D02*
X006278Y014365D01*
X006264Y014360D01*
X006251Y014353D01*
X006239Y014344D01*
X006230Y014332D01*
X006223Y014319D01*
X006218Y014305D01*
X006217Y014290D01*
X006216Y014259D02*
X006217Y014245D01*
X006222Y014231D01*
X006228Y014218D01*
X006238Y014207D01*
X006249Y014197D01*
X006262Y014191D01*
X006276Y014186D01*
X006290Y014185D01*
X006295Y014185D01*
X006330Y014185D01*
X006295Y014185D01*
X006292Y014185D01*
X006279Y014187D01*
X006266Y014191D01*
X006255Y014198D01*
X006245Y014208D01*
X006238Y014219D01*
X006234Y014232D01*
X006232Y014245D01*
X006330Y014185D02*
X006343Y014187D01*
X006356Y014191D01*
X006367Y014198D01*
X006377Y014208D01*
X006384Y014219D01*
X006388Y014232D01*
X006390Y014245D01*
X006405Y014260D02*
X006404Y014245D01*
X006399Y014231D01*
X006392Y014218D01*
X006383Y014207D01*
X006372Y014198D01*
X006359Y014191D01*
X006345Y014186D01*
X006330Y014185D01*
X006516Y014193D02*
X006516Y014358D01*
X006524Y014358D01*
X006524Y014193D01*
X006654Y014193D02*
X006681Y014193D01*
X006681Y014358D01*
X006689Y014358D02*
X006689Y014193D01*
X006681Y014193D01*
X006654Y014193D02*
X006547Y014358D01*
X006524Y014358D01*
X006602Y014610D02*
X006768Y014610D01*
X006768Y014854D01*
X006770Y014869D01*
X006777Y014882D01*
X006787Y014892D01*
X006801Y014899D01*
X006815Y014902D01*
X007106Y014902D01*
X007121Y014899D01*
X007134Y014892D01*
X007144Y014882D01*
X007151Y014869D01*
X007154Y014854D01*
X007154Y014610D01*
X007311Y014610D01*
X007311Y015248D01*
X007154Y015248D01*
X007154Y015028D01*
X007151Y015013D01*
X007144Y015000D01*
X007134Y014989D01*
X007121Y014983D01*
X007106Y014980D01*
X006815Y014980D01*
X006800Y014983D01*
X006787Y014989D01*
X006777Y015000D01*
X006770Y015013D01*
X006768Y015028D01*
X006768Y015248D01*
X006602Y015248D01*
X006602Y014610D01*
X006602Y014635D02*
X006768Y014635D01*
X006768Y014672D02*
X006602Y014672D01*
X006602Y014710D02*
X006768Y014710D01*
X006768Y014748D02*
X006602Y014748D01*
X006602Y014786D02*
X006768Y014786D01*
X006768Y014824D02*
X006602Y014824D01*
X006602Y014862D02*
X006769Y014862D01*
X006805Y014900D02*
X006602Y014900D01*
X006602Y014938D02*
X007311Y014938D01*
X007311Y014976D02*
X006602Y014976D01*
X006602Y015014D02*
X006770Y015014D01*
X006768Y015052D02*
X006602Y015052D01*
X006602Y015090D02*
X006768Y015090D01*
X006768Y015127D02*
X006602Y015127D01*
X006602Y015165D02*
X006768Y015165D01*
X006768Y015203D02*
X006602Y015203D01*
X006602Y015241D02*
X006768Y015241D01*
X006424Y015127D02*
X006269Y015127D01*
X006272Y015122D02*
X006279Y015077D01*
X006280Y015031D01*
X006280Y014827D01*
X006272Y014736D01*
X006263Y014711D01*
X006248Y014688D01*
X006228Y014669D01*
X006204Y014658D01*
X006177Y014651D01*
X006150Y014650D01*
X006047Y014650D01*
X006013Y014654D01*
X005980Y014665D01*
X005961Y014677D01*
X005946Y014693D01*
X005933Y014711D01*
X005925Y014732D01*
X005918Y014777D01*
X005917Y014823D01*
X005917Y014949D01*
X005760Y014949D01*
X005760Y014768D01*
X005765Y014736D01*
X005777Y014707D01*
X005795Y014681D01*
X005820Y014655D01*
X005849Y014633D01*
X005882Y014618D01*
X005919Y014604D01*
X005957Y014596D01*
X005996Y014594D01*
X006197Y014594D01*
X006233Y014597D01*
X006269Y014605D01*
X006303Y014618D01*
X006339Y014632D01*
X006371Y014653D01*
X006398Y014681D01*
X006414Y014703D01*
X006425Y014729D01*
X006429Y014756D01*
X006429Y015094D01*
X006424Y015127D01*
X006412Y015158D01*
X006394Y015185D01*
X006368Y015208D01*
X006339Y015227D01*
X006307Y015240D01*
X006272Y015254D01*
X006235Y015262D01*
X006197Y015264D01*
X006004Y015264D01*
X005946Y015258D01*
X005890Y015240D01*
X005857Y015230D01*
X005828Y015212D01*
X005803Y015189D01*
X005782Y015161D01*
X005767Y015129D01*
X005760Y015094D01*
X005760Y014949D01*
X005917Y014949D01*
X005917Y015028D01*
X005925Y015114D01*
X005936Y015141D01*
X005954Y015164D01*
X005976Y015181D01*
X005997Y015192D01*
X006020Y015199D01*
X006043Y015201D01*
X006154Y015201D01*
X006180Y015199D01*
X006206Y015191D01*
X006228Y015177D01*
X006247Y015163D01*
X006262Y015144D01*
X006272Y015122D01*
X006277Y015090D02*
X006429Y015090D01*
X006429Y015052D02*
X006279Y015052D01*
X006280Y015014D02*
X006429Y015014D01*
X006429Y014976D02*
X006280Y014976D01*
X006280Y014938D02*
X006429Y014938D01*
X006429Y014900D02*
X006280Y014900D01*
X006280Y014862D02*
X006429Y014862D01*
X006429Y014824D02*
X006279Y014824D01*
X006276Y014786D02*
X006429Y014786D01*
X006428Y014748D02*
X006273Y014748D01*
X006263Y014710D02*
X006417Y014710D01*
X006390Y014672D02*
X006232Y014672D01*
X006228Y014597D02*
X005955Y014597D01*
X005969Y014672D02*
X005803Y014672D01*
X005775Y014710D02*
X005934Y014710D01*
X005923Y014748D02*
X005763Y014748D01*
X005760Y014786D02*
X005918Y014786D01*
X005917Y014824D02*
X005760Y014824D01*
X005760Y014862D02*
X005917Y014862D01*
X005917Y014900D02*
X005760Y014900D01*
X005760Y014938D02*
X005917Y014938D01*
X005917Y014976D02*
X005760Y014976D01*
X005760Y015014D02*
X005917Y015014D01*
X005919Y015052D02*
X005760Y015052D01*
X005760Y015090D02*
X005923Y015090D01*
X005931Y015127D02*
X005767Y015127D01*
X005785Y015165D02*
X005956Y015165D01*
X005893Y015241D02*
X006304Y015241D01*
X006374Y015203D02*
X005818Y015203D01*
X005591Y015133D02*
X005579Y015169D01*
X005560Y015199D01*
X005535Y015224D01*
X005510Y015240D01*
X005482Y015250D01*
X005453Y015256D01*
X005421Y015262D01*
X005390Y015264D01*
X005098Y015264D01*
X005019Y015260D01*
X004941Y015248D01*
X004941Y014610D01*
X005106Y014610D01*
X005106Y015157D01*
X005108Y015170D01*
X005115Y015183D01*
X005124Y015192D01*
X005137Y015199D01*
X005150Y015201D01*
X005327Y015201D01*
X005355Y015199D01*
X005381Y015191D01*
X005406Y015177D01*
X005421Y015165D01*
X005434Y015149D01*
X005442Y015130D01*
X005445Y015110D01*
X005445Y015031D01*
X005443Y015009D01*
X005437Y014988D01*
X005428Y014973D01*
X005416Y014959D01*
X005402Y014949D01*
X005376Y014936D01*
X005348Y014928D01*
X005319Y014925D01*
X005224Y014925D01*
X005224Y014862D01*
X005429Y014610D01*
X005610Y014610D01*
X005409Y014850D01*
X005409Y014878D01*
X005453Y014878D01*
X005483Y014881D01*
X005513Y014890D01*
X005539Y014906D01*
X005561Y014923D01*
X005579Y014945D01*
X005590Y014979D01*
X005594Y015016D01*
X005594Y015094D01*
X005591Y015133D01*
X005591Y015127D02*
X005442Y015127D01*
X005445Y015090D02*
X005594Y015090D01*
X005594Y015052D02*
X005445Y015052D01*
X005443Y015014D02*
X005594Y015014D01*
X005589Y014976D02*
X005430Y014976D01*
X005379Y014938D02*
X005573Y014938D01*
X005530Y014900D02*
X005224Y014900D01*
X005225Y014862D02*
X005409Y014862D01*
X005431Y014824D02*
X005255Y014824D01*
X005286Y014786D02*
X005463Y014786D01*
X005495Y014748D02*
X005317Y014748D01*
X005348Y014710D02*
X005527Y014710D01*
X005558Y014672D02*
X005379Y014672D01*
X005409Y014635D02*
X005590Y014635D01*
X005847Y014635D02*
X006344Y014635D01*
X006407Y015165D02*
X006244Y015165D01*
X005580Y015165D02*
X005420Y015165D01*
X005506Y015241D02*
X004941Y015241D01*
X004941Y015203D02*
X005556Y015203D01*
X005108Y015165D02*
X004941Y015165D01*
X004941Y015127D02*
X005106Y015127D01*
X005106Y015090D02*
X004941Y015090D01*
X004941Y015052D02*
X005106Y015052D01*
X005106Y015014D02*
X004941Y015014D01*
X004941Y014976D02*
X005106Y014976D01*
X005106Y014938D02*
X004941Y014938D01*
X004941Y014900D02*
X005106Y014900D01*
X005106Y014862D02*
X004941Y014862D01*
X004941Y014824D02*
X005106Y014824D01*
X005106Y014786D02*
X004941Y014786D01*
X004941Y014748D02*
X005106Y014748D01*
X005106Y014710D02*
X004941Y014710D01*
X004941Y014672D02*
X005106Y014672D01*
X005106Y014635D02*
X004941Y014635D01*
X005500Y014358D02*
X005500Y014193D01*
X006815Y014193D02*
X006886Y014193D01*
X006904Y014193D01*
X006917Y014193D02*
X006886Y014193D01*
X006904Y014193D02*
X006917Y014194D01*
X006930Y014199D01*
X006941Y014206D01*
X006951Y014216D01*
X006958Y014227D01*
X006963Y014240D01*
X006964Y014253D01*
X006965Y014253D02*
X006965Y014307D01*
X006980Y014304D02*
X006980Y014256D01*
X006978Y014242D01*
X006974Y014229D01*
X006966Y014217D01*
X006956Y014207D01*
X006944Y014199D01*
X006931Y014195D01*
X006917Y014193D01*
X006823Y014193D02*
X006823Y014366D01*
X006815Y014366D01*
X006815Y014193D01*
X006965Y014307D02*
X006964Y014320D01*
X006959Y014333D01*
X006952Y014344D01*
X006943Y014353D01*
X006932Y014360D01*
X006919Y014365D01*
X006906Y014366D01*
X006886Y014366D01*
X006823Y014366D01*
X006886Y014366D02*
X006918Y014366D01*
X006932Y014364D01*
X006945Y014360D01*
X006957Y014352D01*
X006966Y014343D01*
X006974Y014331D01*
X006978Y014318D01*
X006980Y014304D01*
X007091Y014358D02*
X007091Y014234D01*
X007106Y014231D02*
X007106Y014358D01*
X007091Y014234D02*
X007093Y014221D01*
X007098Y014209D01*
X007105Y014199D01*
X007116Y014192D01*
X007127Y014187D01*
X007140Y014185D01*
X007197Y014185D01*
X007201Y014185D01*
X007197Y014185D02*
X007152Y014185D01*
X007197Y014185D02*
X007208Y014185D01*
X007201Y014185D02*
X007213Y014187D01*
X007224Y014191D01*
X007234Y014199D01*
X007242Y014208D01*
X007246Y014220D01*
X007248Y014232D01*
X007248Y014358D01*
X007256Y014358D02*
X007256Y014233D01*
X007254Y014221D01*
X007250Y014209D01*
X007242Y014199D01*
X007232Y014191D01*
X007220Y014187D01*
X007208Y014185D01*
X007152Y014185D02*
X007140Y014187D01*
X007129Y014191D01*
X007119Y014198D01*
X007112Y014208D01*
X007108Y014219D01*
X007106Y014231D01*
X007366Y014244D02*
X007366Y014307D01*
X007382Y014302D02*
X007382Y014243D01*
X007366Y014244D02*
X007368Y014231D01*
X007373Y014218D01*
X007381Y014208D01*
X007392Y014200D01*
X007404Y014195D01*
X007417Y014193D01*
X007441Y014193D01*
X007432Y014193D01*
X007441Y014193D02*
X007508Y014193D01*
X007432Y014193D02*
X007419Y014195D01*
X007407Y014200D01*
X007397Y014208D01*
X007389Y014218D01*
X007384Y014230D01*
X007382Y014243D01*
X007366Y014307D02*
X007368Y014320D01*
X007373Y014332D01*
X007381Y014343D01*
X007392Y014351D01*
X007404Y014356D01*
X007417Y014358D01*
X007441Y014358D01*
X007438Y014358D01*
X007441Y014358D02*
X007508Y014358D01*
X007438Y014358D02*
X007423Y014356D01*
X007410Y014350D01*
X007398Y014342D01*
X007390Y014330D01*
X007384Y014317D01*
X007382Y014302D01*
X007610Y014358D02*
X007689Y014358D01*
X007689Y014193D01*
X007697Y014193D02*
X007697Y014358D01*
X007768Y014358D01*
X007697Y014358D02*
X007689Y014358D01*
X007854Y014290D02*
X007854Y014259D01*
X007870Y014245D02*
X007870Y014308D01*
X007871Y014321D01*
X007876Y014334D01*
X007883Y014345D01*
X007892Y014354D01*
X007903Y014361D01*
X007916Y014366D01*
X007929Y014367D01*
X007929Y014366D02*
X007937Y014366D01*
X007969Y014366D01*
X007966Y014366D02*
X007937Y014366D01*
X007931Y014366D01*
X007969Y014366D02*
X007982Y014365D01*
X007994Y014360D01*
X008005Y014353D01*
X008014Y014344D01*
X008021Y014333D01*
X008026Y014321D01*
X008027Y014308D01*
X008028Y014308D02*
X008028Y014245D01*
X008043Y014260D02*
X008043Y014289D01*
X008044Y014289D02*
X008043Y014304D01*
X008038Y014319D01*
X008031Y014332D01*
X008021Y014344D01*
X008009Y014354D01*
X007996Y014361D01*
X007981Y014366D01*
X007966Y014367D01*
X007931Y014366D02*
X007916Y014365D01*
X007902Y014360D01*
X007889Y014353D01*
X007877Y014344D01*
X007868Y014332D01*
X007861Y014319D01*
X007856Y014305D01*
X007855Y014290D01*
X007854Y014259D02*
X007855Y014245D01*
X007860Y014231D01*
X007866Y014218D01*
X007876Y014207D01*
X007887Y014197D01*
X007900Y014191D01*
X007914Y014186D01*
X007928Y014185D01*
X007933Y014185D01*
X007968Y014185D01*
X007933Y014185D01*
X007930Y014185D01*
X007917Y014187D01*
X007904Y014191D01*
X007893Y014198D01*
X007883Y014208D01*
X007876Y014219D01*
X007872Y014232D01*
X007870Y014245D01*
X007968Y014185D02*
X007981Y014187D01*
X007994Y014191D01*
X008005Y014198D01*
X008015Y014208D01*
X008022Y014219D01*
X008026Y014232D01*
X008028Y014245D01*
X008043Y014260D02*
X008042Y014245D01*
X008037Y014231D01*
X008030Y014218D01*
X008021Y014207D01*
X008010Y014198D01*
X007997Y014191D01*
X007983Y014186D01*
X007968Y014185D01*
X008146Y014193D02*
X008146Y014272D01*
X008154Y014272D01*
X008154Y014358D01*
X008240Y014358D01*
X008264Y014358D01*
X008279Y014358D02*
X008240Y014358D01*
X008264Y014359D02*
X008274Y014357D01*
X008283Y014353D01*
X008290Y014346D01*
X008294Y014337D01*
X008296Y014327D01*
X008295Y014327D02*
X008295Y014303D01*
X008311Y014303D02*
X008309Y014293D01*
X008305Y014285D01*
X008298Y014278D01*
X008290Y014274D01*
X008280Y014272D01*
X008248Y014272D01*
X008303Y014193D01*
X008295Y014193D02*
X008240Y014272D01*
X008264Y014272D01*
X008248Y014272D02*
X008240Y014272D01*
X008154Y014272D01*
X008154Y014193D01*
X008146Y014272D02*
X008146Y014358D01*
X008154Y014358D01*
X008264Y014271D02*
X008274Y014273D01*
X008283Y014277D01*
X008290Y014284D01*
X008294Y014293D01*
X008296Y014303D01*
X008311Y014303D02*
X008311Y014327D01*
X008309Y014337D01*
X008305Y014346D01*
X008298Y014353D01*
X008289Y014357D01*
X008279Y014359D01*
X008311Y014610D02*
X008311Y015083D01*
X008309Y015113D01*
X008301Y015142D01*
X008287Y015169D01*
X008273Y015191D01*
X008254Y015210D01*
X008232Y015224D01*
X008206Y015240D01*
X008176Y015251D01*
X008146Y015256D01*
X008109Y015262D01*
X008071Y015264D01*
X007705Y015264D01*
X007508Y015248D01*
X007508Y014610D01*
X007657Y014610D01*
X007657Y015145D01*
X007660Y015160D01*
X007667Y015173D01*
X007677Y015184D01*
X007690Y015191D01*
X007705Y015193D01*
X007783Y015193D01*
X007798Y015191D01*
X007811Y015184D01*
X007822Y015173D01*
X007828Y015160D01*
X007831Y015145D01*
X007831Y014610D01*
X007980Y014610D01*
X007980Y015144D01*
X007983Y015159D01*
X007990Y015173D01*
X008000Y015184D01*
X008014Y015191D01*
X008029Y015193D01*
X008055Y015193D01*
X008083Y015192D01*
X008110Y015185D01*
X008126Y015175D01*
X008139Y015162D01*
X008148Y015146D01*
X008153Y015129D01*
X008154Y015110D01*
X008154Y014610D01*
X008311Y014610D01*
X008311Y014635D02*
X008154Y014635D01*
X008154Y014672D02*
X008311Y014672D01*
X008311Y014710D02*
X008154Y014710D01*
X008154Y014748D02*
X008311Y014748D01*
X008311Y014786D02*
X008154Y014786D01*
X008154Y014824D02*
X008311Y014824D01*
X008311Y014862D02*
X008154Y014862D01*
X008154Y014900D02*
X008311Y014900D01*
X008311Y014938D02*
X008154Y014938D01*
X008154Y014976D02*
X008311Y014976D01*
X008311Y015014D02*
X008154Y015014D01*
X008154Y015052D02*
X008311Y015052D01*
X008311Y015090D02*
X008154Y015090D01*
X008153Y015127D02*
X008305Y015127D01*
X008289Y015165D02*
X008135Y015165D01*
X008203Y015241D02*
X007508Y015241D01*
X007508Y015203D02*
X008261Y015203D01*
X007986Y015165D02*
X007825Y015165D01*
X007831Y015127D02*
X007980Y015127D01*
X007980Y015090D02*
X007831Y015090D01*
X007831Y015052D02*
X007980Y015052D01*
X007980Y015014D02*
X007831Y015014D01*
X007831Y014976D02*
X007980Y014976D01*
X007980Y014938D02*
X007831Y014938D01*
X007831Y014900D02*
X007980Y014900D01*
X007980Y014862D02*
X007831Y014862D01*
X007831Y014824D02*
X007980Y014824D01*
X007980Y014786D02*
X007831Y014786D01*
X007831Y014748D02*
X007980Y014748D01*
X007980Y014710D02*
X007831Y014710D01*
X007831Y014672D02*
X007980Y014672D01*
X007980Y014635D02*
X007831Y014635D01*
X007657Y014635D02*
X007508Y014635D01*
X007508Y014672D02*
X007657Y014672D01*
X007657Y014710D02*
X007508Y014710D01*
X007508Y014748D02*
X007657Y014748D01*
X007657Y014786D02*
X007508Y014786D01*
X007508Y014824D02*
X007657Y014824D01*
X007657Y014862D02*
X007508Y014862D01*
X007508Y014900D02*
X007657Y014900D01*
X007657Y014938D02*
X007508Y014938D01*
X007508Y014976D02*
X007657Y014976D01*
X007657Y015014D02*
X007508Y015014D01*
X007508Y015052D02*
X007657Y015052D01*
X007657Y015090D02*
X007508Y015090D01*
X007508Y015127D02*
X007657Y015127D01*
X007662Y015165D02*
X007508Y015165D01*
X007311Y015165D02*
X007154Y015165D01*
X007154Y015127D02*
X007311Y015127D01*
X007311Y015090D02*
X007154Y015090D01*
X007154Y015052D02*
X007311Y015052D01*
X007311Y015014D02*
X007151Y015014D01*
X007116Y014900D02*
X007311Y014900D01*
X007311Y014862D02*
X007152Y014862D01*
X007154Y014824D02*
X007311Y014824D01*
X007311Y014786D02*
X007154Y014786D01*
X007154Y014748D02*
X007311Y014748D01*
X007311Y014710D02*
X007154Y014710D01*
X007154Y014672D02*
X007311Y014672D01*
X007311Y014635D02*
X007154Y014635D01*
X007154Y015203D02*
X007311Y015203D01*
X007311Y015241D02*
X007154Y015241D01*
M02*
