%
M48
T01C0.007874
T02C0.011811
T03C0.031496
T04C0.039370
T05C0.125984
%
T01
X6378Y8268
T02
X5807Y8268
X5709Y9350
X6004Y9350
X4724Y10925
X4429Y10925
X4429Y11220
X4724Y11220
X5217Y12992
X5217Y13287
X2559Y13976
X2264Y13976
X1969Y13976
X1969Y14272
X2264Y14272
X2559Y14272
X8169Y12303
X8169Y12008
X9055Y9744
X9055Y9449
X8760Y9449
X9350Y9449
X9350Y9744
X9646Y9744
X9646Y9449
X9173Y4429
X8878Y4429
X8583Y4429
X8583Y4134
X8878Y4134
X9173Y4134
X8071Y4134
X7776Y4134
X7480Y4134
X7480Y4429
X7776Y4429
X8071Y4429
X6890Y4331
X6890Y4626
X6594Y4626
X6594Y4331
X6594Y4035
X6890Y4035
X10728Y3346
X10728Y3051
X10728Y2756
X11024Y2756
X11024Y3051
X11024Y3346
T03
X3346Y9531
X3346Y10531
X3346Y11531
X1181Y11531
X1181Y10531
X1181Y9531
T04
X1181Y7087
X3346Y7087
X3346Y4331
X3346Y1181
X10630Y1181
X10630Y6299
X10630Y9843
X10630Y12205
T05
X1181Y1181
M30
